<?xml version="1.0" encoding="utf-8"?>
<!-- Generator: Adobe Illustrator 18.0.0, SVG Export Plug-In . SVG Version: 6.00 Build 0)  -->
<!DOCTYPE svg PUBLIC "-//W3C//DTD SVG 1.1//EN" "http://www.w3.org/Graphics/SVG/1.1/DTD/svg11.dtd">
<svg version="1.1" id="Layer_1" xmlns="http://www.w3.org/2000/svg" xmlns:xlink="http://www.w3.org/1999/xlink" x="0px" y="0px"
	 viewBox="0 0 627.2 106.9" enable-background="new 0 0 627.2 106.9" xml:space="preserve">
<g>
	<path fill="#F3F3F3" d="M58,73.3c-0.2-3.7-0.1-7.4-0.2-11.2c-0.1-5.7-0.3-11.3-1.4-16.9c0-1.3,0.1-2.6-0.3-3.9
		c-0.1-0.5-0.8-0.9-1.4-1.3l-2.1-1.8c-6.5-5.4-15.2-11.1-23.5-11.1c-3.4,0-5.5,1-6,2.4l5,3.2c0.4-1.2,2.1-2,4.6-2
		c5.5,0,10.9,4,13.6,6.3l0.7,0.6c-5.8,0-8.8,1-9.1,3.1c-0.1,0.1-0.1,0.3-0.1,0.4c0.4,6.3,0.8,12.7,1,19c0.2,6.2-1,12.3,0.5,18.5
		c1.1,4.3,3.4,6.5,7.9,6c2.5-0.3,4.6-1.5,5.9-3.3c0.1,0.5,0.3,1.1,0.5,1.5c0.6,0.9,2.8,0.6,3.7,0.7c0.4,0,0.7-0.3,0.8-0.6
		C58.9,79.8,58.1,76.4,58,73.3z M48.6,76.7c-0.6,0.7-1.5,1.1-2.7,0.6c-1.9-0.7-2.7-3.5-3.1-5.2c0-0.2-0.1-0.3-0.2-0.4
		c-0.2-1-0.2-1.8-0.2-2c-0.1-3,0.1-5.9,0.1-8.9c0-6.6-0.2-13.2-0.6-19.7h6.9c0.7,2.7,0.4,5.9,0.6,8.6c0.1,3.2,0.3,6.5,0.4,9.7
		C49.9,61.9,51,72.5,48.6,76.7z"/>
	<path fill="#F3F3F3" d="M86.2,90.1c-0.1-3.5-0.5-7-0.9-10.5c-0.8-6.7-1.8-13.3-1.7-20c0.1-6.2,0.6-12.4-0.8-18.5h0.1L82.8,41
		c0,0,0-0.1,0-0.1c-0.1-0.4-0.4-0.6-0.8-0.6l-2.4-2c-6.5-5.4-15.2-11.1-23.5-11.1c-3.4,0-5.5,1-6,2.4l5,3.2c0.4-1.2,2.1-2,4.6-2
		c5.5,0,10.9,4,13.6,6.3l0.7,0.6c-5,0-7.9,0.8-8.9,2.3c-0.1,0.1-0.2,0.2-0.3,0.4c-0.9,2.7,0,5.6,0.2,8.3c0.4,3.8,0.4,7.7,0.4,11.6
		c0,7.7-0.4,15.4,0.5,23.1c0.5,4.4,1.7,10.3,7.4,10.3c3.7,0,5.7-2.3,7-5.3c0.1,1.3,0.3,2.5,0.7,3.7c0.4,1.2,3,1,3.8,0.8
		C86.3,92.5,86.2,91.5,86.2,90.1z M75.8,85.2c-0.6,1.7-1.8,1.6-3.4-0.2c-0.4-1.1-0.5-2.4-0.6-3.5c-0.2-1.8-0.2-3.5-0.3-5.3
		c-0.2-4-0.4-8-0.6-12c-0.4-7.6-0.6-15.3-0.8-22.9c0-0.1,0-0.1,0-0.1h6.1c0.8,7.5,0,14.8,0.3,22.3C76.7,70.7,79,78.2,75.8,85.2z"/>
	<path fill="#F3F3F3" d="M115.3,72.1c-0.1-0.1-0.1-0.2-0.2-0.2c-0.1-9.3-0.4-18.5-0.8-27.8c0-0.1,0-0.3-0.1-0.4
		c0.1-0.9,0.1-1.9-0.3-2.7h0l0,0c-0.1-0.1-0.1-0.2-0.2-0.3c-0.1-0.1-0.2-0.1-0.3-0.2l-2.2-1.9C100,29.5,91.5,27.2,87.8,27.2
		c-4.5,0-4.6,2.5-2.9,5.1h-0.1l-5.6-4.5h-4.4c2.8,2.2,5.6,4.5,9,7.3l6.7,5.6c0,0,0,0.1,0,0.1c0.4,2.3,0.9,4.4,1.1,6.7
		c0.4,5.4,0.6,10.8,0.9,16.2c0,0.4,0.3,0.7,0.6,0.8c1.1,0.3,2,0.2,3-0.5c0.4-0.2,0.4-0.6,0.3-0.9c0.1-0.1,0.1-0.3,0.1-0.5
		c-0.6-7.2-1-14.4-1.3-21.6c0,0,0,0,0,0h0.4l-0.5-0.4c-0.1-0.1-0.1-0.1-0.2-0.2l-2.2-1.8c-1-0.8-1.9-1.7-2.4-2.3
		c-2.4-2.7-2.6-5,0.6-5c4.6,0,10.6,3.6,15.8,8l1.6,1.3c0.6,5.7,1,11.3,1.3,17c0.1,2.9,0.2,5.7,0.2,8.6c0,2.3-0.3,4.8,0.6,7
		c0.2,0.5,0.8,0.6,1.2,0.5c0.8,0.1,1.7,0.2,2.6,0.2C115.2,73.8,115.9,72.9,115.3,72.1z"/>
	<path fill="#F3F3F3" d="M157.4,41c0-0.7-0.7-0.9-1.2-0.6c0,0,0,0-0.1,0l-29.9-25.1h-4.9l19.3,16.2h-0.1c-3.8-2.2-9-4.1-13.1-4.1
		c-6.4,0-5.6,5.2,4.1,13.6c0,0.1,0,0.1,0,0.2c-0.1,8.8,0.3,20.8,8.3,26.3c4.8,3.3,11.3,1.8,14.4-2.3c0,0.7,0,1.5,0.5,1.8
		c0.7,0.5,1.3,0.6,1.9,0.4c0.4,0.1,0.8,0.2,1.3,0.3c0.5,0.1,1.1-0.3,1-0.8C157.7,58.2,157.3,49.6,157.4,41z M145.6,65.3
		c-0.7-0.1-1.3-0.4-1.8-0.7c-0.1-0.4-0.4-0.8-1-0.7c-2.5-2.1-3.6-5.9-4.3-8.9c-1.1-4.6-1.6-9.3-1.8-14h0.1c0,0-0.1,0-0.1-0.1
		c0-0.1,0-0.2,0-0.3c0-0.6-0.6-0.9-1.1-0.7c-0.3-0.3-0.6-0.5-0.8-0.8c-0.1-0.2-0.2-0.4-0.4-0.4c-4.6-4.6-5.6-7.7-1.3-7.7
		c3.7,0,9.4,2.6,13.9,5.7c0.9,0.6,2,1.5,2.7,2.1l2.5,2.1c-0.1,4.4,0,8.8,0.3,13.2C152.7,58.9,152.6,66.8,145.6,65.3z"/>
	<path fill="#F3F3F3" d="M190,67.6c-0.1-0.2-0.2-0.4-0.4-0.5c-0.7-0.3-1.5-0.6-2.1-1.1c-0.2-0.1-0.4-0.2-0.6-0.2
		c-0.4-0.3-1-0.3-1.3,0.2c-1.9,3.2-4.1,6.2-8.4,5.3c-4.1-0.9-6.4-4-6.9-8c-0.9-7.3-0.9-14.8-1.4-22.2h18.1c-0.4-0.3-0.8-0.7-1.3-1.1
		c-5.9-5-17.5-12.7-26.4-12.7c-7.6,0-5.2,6,3.6,13.7c0,0.1-0.1,0.2-0.1,0.4c0.2,6.7,0.4,13.4,0.7,20.1c0.2,5.4,2.6,9.6,6.5,13.3
		c3,2.8,7.5,4.8,11.6,3.7c5.2-1.3,6.6-5.3,8.5-9.9C190.4,68.1,190.3,67.8,190,67.6z M163.3,30.8c5.5,0,12.7,4.9,16.4,8h-14.4
		C161.6,35.3,158.3,30.8,163.3,30.8z"/>
	<path fill="#F3F3F3" d="M229.6,41.1c-0.1-0.1-0.3-0.2-0.4-0.3c0,0,0,0,0-0.1c0-0.6-0.5-0.8-1-0.7c-9.6-7.6-20.7-12.7-28.1-12.7
		c-7.3,0-7.1,5,2.8,13.6c-0.2,0.1-0.3,0.3-0.3,0.6c0.1,7.2-0.2,14.4,2.1,21.3c1.9,5.8,7.2,8.9,13.1,9.7c5.5,0.7,8.5-5.7,10-9.9
		c2.5-6.9,1.6-14.4,1.4-21.5H229.6z M223.5,55.5c-0.4,3.7-1.5,9.9-6.1,10.5c-2.3,0.3-4.4-2.6-5.5-4.2c-1.2-1.8-1.8-3.9-2.4-5.9
		c-1.2-4.7-1.5-9.8-1.7-14.6c0-0.1,0-0.2-0.1-0.3h0.3c-5.9-5-9.4-10.1-3.8-10.1c5.5,0,14.1,5.2,19.6,9.7c-0.2,0.1-0.3,0.4-0.3,0.6
		C224.1,46,224,50.8,223.5,55.5z"/>
	<path fill="#F3F3F3" d="M274.5,41.8c0.1-0.3-0.1-0.6-0.2-0.7h0.2L272,39c-11.2-9.4-19.3-11.7-22.9-11.7c-2.6,0-3.6,0.7-3.7,1.9
		c-0.1,0.8,0.2,2,1.2,3.5h-0.1c-5-3.2-10.4-5.4-14.1-5.4c-4.5,0-4.1,2.4-2.6,5h-0.2l-5.4-4.4h-4.3c2.8,2.2,5.6,4.5,9,7.3l6.7,5.7
		c0,0.1,0,0.1,0,0.2c-0.2,9.8-0.6,19.6-1.3,29.4c-0.1,0.7,0.7,0.9,1.2,0.6c0.9,0.8,2.4,0.9,3.4,0.2c0.2-0.1,0.3-0.3,0.3-0.4
		c0.2-0.1,0.4-0.3,0.4-0.6c1.1-9.6,1.6-19.2,1.6-28.8c0-0.6-0.5-0.8-1-0.7l-2.4-2c-1-0.8-1.9-1.7-2.5-2.4c-2.2-2.5-2.8-4.9,0.2-4.9
		c3.7,0,9.4,3.1,14.5,7.4l2.7,2.2c0,0.1,0,0.2,0,0.2c0.3,8.4,0.7,16.7,1,25.1c0,0.8,0.9,1,1.4,0.5c0,0,0,0,0,0
		c0.9,0.4,1.8,0,2.6-0.3c0.3-0.1,0.6-0.5,0.6-0.8c-0.6-8.1-0.8-16.2-0.6-24.4c0-0.5-0.4-0.8-0.8-0.8l-2.7-2.3
		c-1.1-0.9-2-1.8-2.5-2.5c-2-2.4-2.3-4.5,0.5-4.5c4,0,9.6,3.1,15.8,8.3l1.6,1.3c-0.2,0.1-0.3,0.3-0.3,0.5c-1.3,4.8,0.3,9.5,1,14.3
		c0.8,5.6,0.5,11.3-0.6,16.8c-0.2,0.8,0.6,1.1,1.2,0.9c0,0,0,0,0,0c0.5,1.4,1.8,1.3,2.8,0.3c0.8-0.8,0.9-2.7,1.1-3.7
		c0.3-1.6,0.4-3.2,0.5-4.9C275.3,57.4,273,49.7,274.5,41.8z"/>
	<path fill="#F3F3F3" d="M294.4,41.1h0.5c-1.9-0.7-3.8-1.3-6-1.9c-5.1-1.3-7.9-2.3-10.6-4.6c-2.4-2-2.8-3.7,0.1-3.7
		c2.5,0,5.5,0.9,7.4,1.6l-3-3.6c-2.6-0.9-5.9-1.7-8.7-1.7c-5.8,0-5.1,3.6,0.1,7.9c2.7,2.3,6.2,4.3,10.5,5.9c0,0.4,0.1,0.8,0.6,1
		c1.5,0.5,3.1,1.1,4.6,1.6c2,0.7,2.8,2.8,3.6,4.6c3,6.8-7.9,8.1-7.5,3c0-0.6-0.6-0.9-1.1-0.7c-0.7,0.2-1.4,0.3-2.1,0.3
		c-0.4,0-0.7,0.3-0.7,0.6c-0.1,0.1-0.2,0.3-0.2,0.5c-0.2,6.6,7.3,11.6,12.2,6C297.5,53.9,299.5,44.3,294.4,41.1z"/>
	<path fill="#F3F3F3" d="M315.3,77c-0.1,0-0.1-0.1-0.2-0.1c0.2-0.6-0.3-1.4-1-1c-1.7,0.8-3.5,0.7-4.4-0.7c-0.1-1.7-0.2-3.3-0.3-5
		c0.1-0.3,0.1-0.6,0.2-1c0.3-2.2,0.1-4.5-0.2-6.8c0-1,0-1.9,0-2.9c0-5.8,0-11.7,0-17.5c0.2-0.3,0.1-0.7,0-0.9h0.2l-30.8-25.9h-4.9
		l30.8,25.9h0.3c-0.2,0.1-0.3,0.4-0.3,0.6c0,6.1-0.1,12.1-0.1,18.2c0,3.2,0,6.4,0,9.6c0,3-0.3,6.1,0.2,9c0.6,3.6,4.6,4.2,7.6,3.5
		C314.3,81.7,318.4,79.2,315.3,77z"/>
	<path fill="#F3F3F3" d="M360.6,61c0,0-0.1-0.1-0.1-0.1l-1.5-1.7c-0.3-0.3-0.9-0.3-1.2,0.1c-0.1,0.1-0.1,0.1-0.1,0.2
		c-0.1,0-0.2,0.1-0.4,0.2c-0.8,1-1.6,1.9-2.7,2.6c-0.2,0.1-0.4,0.2-0.6,0.3c-0.6,0.1-1.4,0.3-2.1,0.4c-0.4,0-0.8-0.2-1.2-0.4
		c-0.1-0.2-0.2-0.4-0.3-0.6c-0.9-2.2-1-4.9-1.4-7.3c-0.6-4.4-0.8-8.9-0.7-13.3c0-0.6-0.5-0.8-1-0.7c-6.1-5.3-7.8-9.6-1.9-9.6
		c2.7,0,5.3,0.6,7.2,1.3l-3.4-3.8c-2.1-0.7-5.6-1.4-8.5-1.4c-8.6,0-7.4,5.7,1.8,13.7c0,0.1,0,0.1,0,0.2c0,5.3,0.4,10.5,0.9,15.8
		c0.4,3.7,0.7,7.2,3.3,10c4.9,5.3,13.4,1.5,14.5-5C361.4,61.4,361,61.1,360.6,61z"/>
	<path fill="#F3F3F3" d="M395.8,57.1c-0.8-5.1-3.7-9.9-2.7-15.2c0.1-0.3-0.1-0.6-0.3-0.8h0l-2.7-2.3c-11.1-9.3-19.6-11.6-23.2-11.6
		c-1.8,0-2.9,0.6-3.4,1.4c-0.5,0.8-0.3,2.1,0.6,3.5H364l-20.1-16.9H339l30.3,25.5c0,0,0,0,0,0.1c0.3,7.5,0.5,15.1,0.8,22.6
		c0,0.6,0.7,0.9,1.2,0.7c0.7,0.3,0.9,0.3,1.6,0.5c0.2,0,0.4,0,0.6-0.1c0.5,0.2,1.2,0,1.2-0.7c-0.3-7.5-0.4-15.1-0.1-22.6
		c0,0,0,0,0,0h0.2l-0.3-0.2c-0.1-0.3-0.3-0.4-0.6-0.5l-2.1-1.8c-1.1-1-1.9-1.7-2.5-2.3c-2.3-2.7-2.5-4.9,0.7-4.9
		c4.6,0,10.7,3.7,15.9,8.1l1.7,1.5c-0.2,0.1-0.3,0.3-0.3,0.6c0,5.3,1.5,9.8,3.2,14.7c1.9,5.3-2.2,9.5-1.9,14.8c0,0.6,0.5,0.8,1,0.7
		c0.1,0.1,0.1,0.1,0.2,0.1c0.6,0.3,1.2,0.5,1.9,0.5c0.4,0,0.7-0.3,0.8-0.7c0.1,0,0.3-0.1,0.4-0.1c0.3-0.1,0.6-0.4,0.6-0.8
		c-0.3-2.6,1.1-4.6,1.9-6.9C396.1,61.5,396.2,59.4,395.8,57.1z"/>
	<path fill="#F3F3F3" d="M420.4,71.7c-0.7-0.5-1.3-1-2-1.4c-0.4-0.3-0.8-0.3-1.2,0.1c-0.2,0.2-0.3,0.5-0.2,0.8c-0.5,1-0.9,2-1.6,2.9
		c-2.1,2.8-4.9,1.3-6.4-1c-1.9-2.8-1.6-7-1.7-10.3c-0.2-7.1-0.5-14.1-0.7-21.2c0-0.2-0.1-0.4-0.2-0.5h0.1l-11.3-9.5h7l-4.5-3.7h-7
		l-9.3-7.8l-3.3,1.3l7.7,6.5h-4.2l4.5,3.7h4.2l11,9.2c0,0.1,0,0.1,0,0.2c-0.2,6.2,0.5,12.6,0.8,18.8c0.2,4.8-0.4,11,1.9,15.4
		c4.1,7.7,15.5,6.2,17.1-2.5C421.3,72,420.8,71.7,420.4,71.7z M404.3,67.9c0-0.3,0-0.7-0.1-1c0,0,0,0,0,0c0,0.8,0.1,1.5,0.2,2.3
		c0,0.1,0,0.2,0.1,0.3c0.1,0.9,0.2,1.8,0.4,2.7C404.6,70.8,404.4,69.3,404.3,67.9z"/>
	<path fill="#F3F3F3" d="M400.2,23.3c2,0,1.6-1.3-0.5-3c-2.1-1.7-4.8-3.1-6.7-3.1c-1.8,0-1.5,1.3,0.6,3.1
		C395.7,21.9,398.5,23.3,400.2,23.3z"/>
	<path fill="#F3F3F3" d="M424.5,61.8C424.5,61.8,424.5,61.8,424.5,61.8c-0.2-6.9-0.2-13.8-0.3-20.7c0-0.6-0.6-0.9-1-0.7l-14.9-12.5
		h-4.9l15.3,12.9c0,0.1,0,0.1-0.1,0.2c-0.5,3.2,0.2,6.8,0.4,10l0.8,11.5c0,0.6,0.6,0.9,1.1,0.7c0.1,0.2,0.3,0.3,0.5,0.3
		c0.8,0.1,1.6,0,2.3-0.3c0.2,0,0.3-0.1,0.4-0.2c0,0,0,0,0.1,0C424.7,62.7,424.7,62.2,424.5,61.8z"/>
	<path fill="#F3F3F3" d="M455.2,62.9c-0.8-7,0.1-14.3,0.4-21.3c0-0.4-0.2-0.6-0.5-0.7l-6.7-5.6c-3.9-3.3-6.4-5.5-8.6-7.4h-4.3
		l4.6,4.1H440c-3.8-2.2-9.3-4.7-14-4.7c-6,0-6,4.8,3.8,13.4c0,0.1-0.1,0.2-0.1,0.4c0.2,4.9,0.6,9.7,1.5,14.5c0.7,4,1.8,8.4,6,10
		c5.5,2,10.8-1.9,13.6-6.6c-0.3,3.9-0.6,7.8-0.8,11.7c-0.1,1.4-0.2,2.8-0.3,4.2c0.2,1.9-0.9,2.9-3.2,3.2c-0.5-0.5-1-1-1.4-1.6
		c-1.4-2.1-1.6-4.9-1.8-7.3c-0.1-0.6-0.7-0.9-1.2-0.7c-0.1,0-0.2,0-0.4,0c-1,0.2-1.9,0.4-2.9,0.4c-0.4,0-0.8,0.4-0.8,0.9
		c0.4,4.5,1,10.4,5.3,13.1c4,2.4,8.2,1.3,10.4-2.8C456.3,74.7,455.8,68.3,455.2,62.9z M442.9,57.6c-8.3,3.8-7.2-12.2-7.1-16.3
		c0-0.6-0.6-0.9-1.1-0.7c-6.8-5.9-7.9-9.6-3.4-9.6c3.6,0,8.8,2.3,13.1,5.2c1,0.7,1.9,1.4,2.9,2.2l2.7,2.3c-0.1,0.1-0.1,0.3,0,0.5
		C451.5,47.5,448.9,54.9,442.9,57.6z"/>
	<path fill="#F3F3F3" d="M485.9,61.9c-0.6-0.3-1.2-0.6-1.6-1.2c-0.2-0.3-0.5-0.4-0.8-0.4c-0.3-0.1-0.7,0-0.9,0.4c-1.4,3-3.4,5.6-7,6
		c-4.2,0.5-6-4.3-6.4-7.6c-0.8-5.9-0.6-12.1-0.7-18.1h16.9c-0.4-0.3-0.8-0.7-1.3-1.1c-5.9-5-17.5-12.7-26.4-12.7
		c-7.6,0-5.2,6,3.8,13.8h0.1c0.4,5.6,0.8,11.1,1.2,16.7c0.3,4,0.1,8.9,3.9,11.4c3.3,2.1,7.7,2.8,11.6,2.1c4-0.7,6.2-4.2,7.3-7.7
		c0-0.1,0-0.1,0-0.2c0.2,0,0.4-0.2,0.6-0.4C486.5,62.6,486.4,62.1,485.9,61.9z M463.5,38.8c-3.7-3.4-7-8-2-8c5.5,0,12.7,4.9,16.4,8
		H463.5z"/>
	<path fill="#F3F3F3" d="M551.4,76.3C551.4,76.3,551.4,76.3,551.4,76.3c-0.1,0-0.2,0-0.2,0c-0.9-5.6-0.4-11.2-0.4-16.8
		c-0.1-6-0.8-12-1.5-17.9c0-0.2-0.1-0.3-0.2-0.4h0.5l-3.3-2.8c-6.5-5.4-15.2-11.1-23.5-11.1c-3.4,0-5.5,1-6,2.4l5,3.2
		c0.4-1.2,2.1-2,4.6-2c5.5,0,10.9,4,13.6,6.3l0.7,0.6c-5.1,0-8,0.8-8.9,2.4c-0.2,0.1-0.4,0.2-0.4,0.4c-0.6,1.6-0.8,3.1-0.5,4.8
		c0.2,0.9,0.3,1.8,0.5,2.8c0,0,0,0,0,0c0,0.1,0,0.2,0,0.3c0.4,2.1,0.8,4.2,1,6.4c0,0,0,0,0,0c-3.1-2.7-6.1-5.3-9.2-8
		c-1.5-1.3-3.1-2.8-4.7-3.9c-1-0.7-2-1.2-3-1.8h0.2l-1.7-0.9c-0.6-0.4-1.2-0.8-1.8-1.2c-0.2-0.1-0.4-0.2-0.6-0.2l-2.8-10.9h-5.9
		l3.2,9.3c0.4,1,0.8,2.1,1.3,3.1h-0.1l-29.9-25.1h-4.9l30.8,25.9h0.1c0.1,0.2,0.2,0.4,0.5,0.5c0.6,11.9,0.5,23.8-0.1,35.7
		c0,0.4,0.2,0.6,0.4,0.7c-0.1,1.3,2,1.1,3.4,0.8c0.4,0.2,1,0.1,1.2-0.4c0.3-0.3,0.3-0.7,0-1.1c-0.5-11,0.3-22.1,0.8-33
		c6.5,5.5,13,11,19.5,16.5c0.1,0.2,0.3,0.4,0.4,0.7c0.3,0.4,1,0.5,1.3,0.1c0.7-0.8,1.3-1.6,1.9-2.5c0.2,4.3,0.3,8.6,0.9,12.8
		c0.4,2.9,1.5,7.1,5.2,7c2.8-0.1,5.7-1.1,7.2-3.4c0.1,0.6,0.1,1.2,0.3,1.8c0.1,0.3,0.4,0.5,0.6,0.6c1.2,0.1,2.3,0.2,3.5,0.1
		c0.7,0,1.7-0.1,1.6-1.1C552,76.6,551.8,76.4,551.4,76.3z M545.4,41.1c0.6,8.6,0.7,17.2,0.1,25.8c0,0-0.1,0.1-0.1,0.1
		c-0.5,1.2-1.2,2.3-2,3.3c-2.2,2.6-3.7,0.3-4.2-1.9c-0.7-3.3-1-6.8-1.3-10.2c-0.5-5.7-1-11.5-1.6-17.2H545.4z"/>
	<path fill="#F3F3F3" d="M581.2,69.7c-0.1-3.3-0.2-6.6-0.3-9.9c-0.2-6.2-0.3-12.4-0.5-18.6c0-0.1,0-0.1,0-0.2h0.2l-0.2-0.2
		c-0.1-0.2-0.2-0.3-0.4-0.3l-2.1-1.8c-11.1-9.3-19.5-11.5-23.3-11.5c-4.5,0-4.6,2.5-2.9,5.1h-0.1l-5.6-4.5h-4.4
		c2.8,2.2,5.6,4.5,9,7.3l6.7,5.6c0,0.1,0,0.1,0,0.2c0,4.9,0.2,9.9,0.5,14.8c0.1,2.5,0.3,4.9,0.6,7.4c0.1,1-0.1,2.9,0.8,3.6
		c0.3,0.3,0.9,0.3,1.2-0.1l0,0c0.6,0,1.2,0,1.8,0c0.3,0,0.7-0.3,0.8-0.6c0-0.1,0-0.1,0-0.2c0.4-0.3,0.7-0.7,0.5-1.2
		c-0.3-7.7-0.6-15.4-0.9-23.2c0-0.2-0.1-0.3-0.1-0.4h0.4l-2.9-2.4c-1-0.8-1.9-1.7-2.4-2.3c-2.4-2.7-2.6-5,0.6-5
		c4.6,0,10.6,3.6,15.8,8l1.5,1.3c0,0.1-0.1,0.2-0.1,0.3c0.1,10.3,0.2,20.6,0.3,30.8c0,0.1,0,0.2,0,0.3c0,0.4,0,0.8,0,1.2
		c0,0.6,0.6,0.9,1.1,0.7c0.8,0.6,2.3,0.4,3.3,0.1c0,0,0,0,0.1,0c0.3,0.3,0.9,0.3,1.2-0.1C581.8,73,581.3,71,581.2,69.7z"/>
	<path fill="#F3F3F3" d="M604.3,67.6c-0.6-0.5-1.1-1.2-1.5-1.9c-0.4-1-2-0.5-1.6,0.5c0,0,0,0.1,0.1,0.1c-2.6,4.1-7.3,1.6-7.6-2.6
		c-0.2-2.4-0.1-4.9-0.1-7.3c0-5.1,0.1-10.2,0.3-15.2c0,0,0-0.1,0-0.1h0.3L583,31.6h7l-4.5-3.7h-7l-9.3-7.8l-3.3,1.3l7.7,6.5h-4.2
		l4.5,3.7h4.2l11.3,9.4l-0.5,16c-0.1,4.1-1,8.7,1.3,12.4c3.6,5.9,11.9,4.7,15.1-0.7C605.7,68,604.9,67.4,604.3,67.6z"/>
	<path fill="#F3F3F3" d="M338,70.2c0-0.1-0.1-0.2-0.2-0.3c0.1-9.4-0.1-18.8-0.7-28.3c0-0.4-0.2-0.6-0.5-0.7l-3.1-2.6
		c-6.5-5.4-15.2-11.1-23.5-11.1c-3.4,0-5.5,1-6,2.4l5,3.2c0.4-1.2,2.1-2,4.6-2c5.5,0,10.9,4,13.6,6.3l0.7,0.6
		c-6.1,0-9.1,1.1-9.2,3.4h0.4c0,0,0,0.1,0,0.1c-0.5-0.1-1,0.2-0.9,0.8c0.3,5.4,0.6,10.8,1,16.2c0.2,3.1-0.4,8.7,2.2,11.1
		c2.1,2,6.1,3.8,8.9,2.4c1.7-0.8,2.8-2.1,3.6-3.6c0,0.9,0,1.8,0.1,2.7c0,0.4,0.3,0.7,0.6,0.8c0.6,0.1,1.2,0.1,1.8,0.2
		c0.3,0.4,1.1,0.4,1.3-0.1C338.3,71.3,338.3,70.6,338,70.2z M332,41.1c0.3,4.5,0.5,9.1,0.8,13.6c0.3,4.4,0.5,9.8-3.4,12.8
		c-0.7,0.5-1.3,0.8-1.9,0.8c-0.3,0-0.6-0.1-0.8-0.1c-0.1,0-0.2-0.1-0.3-0.1c0.1-0.6-0.6-1.1-1.2-0.9c-1.1-1.2-1.9-3.3-2.1-4.7
		c-0.3-2.2-0.3-4.4-0.4-6.6c-0.2-4.9-0.3-9.9-0.3-14.9c0,0,0,0,0,0H332z"/>
</g>
</svg>
