<?xml version="1.0" encoding="utf-8"?>
<!-- Generator: Adobe Illustrator 18.0.0, SVG Export Plug-In . SVG Version: 6.00 Build 0)  -->
<!DOCTYPE svg PUBLIC "-//W3C//DTD SVG 1.1//EN" "http://www.w3.org/Graphics/SVG/1.1/DTD/svg11.dtd">
<svg version="1.1" id="Layer_1" xmlns="http://www.w3.org/2000/svg" xmlns:xlink="http://www.w3.org/1999/xlink" x="0px" y="0px"
	 viewBox="0 0 501 454.6" enable-background="new 0 0 501 454.6" xml:space="preserve">
<g>
	<path fill="#FAAE1B" d="M97.3,336.9c-4.3-11.9-9.6-17.4-14.8-23.5c-6.8-8.1-13.6-15.3-20.5-21.8c0.3-0.7,0.5-1.9,0.4-3.5
		c-1.1-47.9-1.3-95.9-0.8-143.9h29l-6.7-26H57.5L42.2,58.6h28.9L60.4,17.2H16.7l32.6,126.9h0.2c-1.5,63.6-2.3,127.3-2.5,191.1
		c0,3,0.7,4.3,1.4,4.1c0.2,0.8,0.4,1.6,0.7,2c6.3,7.3,12.9,10,19.5,14.3c7.4,5,14.5,14.7,21.2,26.8c0.5,0.9,0.9,0.6,1.3-0.3
		c0.4-0.2,0.7-0.8,1-2.1c2.1-11.6,3.9-23.6,5.3-36.2c0-0.1,0-0.2,0-0.3C97.8,341.8,98.1,338.9,97.3,336.9z"/>
	<path fill="#FAAE1B" d="M156.5,145.7c0.1-2.7-0.4-4.6-1.1-5.1c-0.5-1.8-1-3.6-1.5-5.2c-2.4-7.9-4.9-15.5-7.6-22.8
		c-2.7-7.2-5.4-13.3-8-18.2c-2.6-4.9-5.4-8.7-8.3-11.6c-2.9-2.8-5.8-4.3-8.7-4.3c-8.1,0-11.4,10.9-10.1,32.6l-8-29.9H89.8
		c4.2,15.2,8.3,30.3,12.1,45.2l3.6,14v0c1,39.7,2,79.4,2.6,119.2c0.2,14.1,0.3,28.1,0.4,42.2c-0.2,0.8-0.4,1.9-0.4,3.4
		c0.1,2.9,0.2,6.3,0.4,10c0,1.4,0,2.7,0,4.1c0,18.4-0.6,36.2,1.5,53.5c0.4,3.7,1.8,3.5,2.3,1.3c2.8,2.5,5.7,4.2,8.6,4.9
		c0.5,0.1,0.8-0.6,1-1.6c0.7-0.1,1.3-1.6,1.1-4.4c-3.3-76-3.7-152.5-1-228.8c0.1-2.4-0.3-4-0.8-4.8c-0.2-1.7-0.4-3.3-0.5-4.7
		c-0.3-4.3-0.2-7.7,0.2-10.2s1.1-4.2,2-5c0.9-0.8,1.9-1.2,3.2-1.2c3.6,0,7.2,4.4,10.9,13.3c1.3,3.2,2.8,7.2,4.3,11.8
		c-0.7,41.5,1.2,82.9,1.5,124.4c0.1,20-0.1,40-0.3,59.9c-0.2,15.3-0.9,29.5,1.2,43.5c0.2,1.6,0.6,2.2,1,2.1c1.4,7.2,6.3-2.8,8.1-7.6
		c0.8,0.5,1.7-1,1.6-4.4c-0.4-33.2,0.3-65.6,1.1-98.6C156.6,223.7,154.9,184.5,156.5,145.7z"/>
	<path fill="#FAAE1B" d="M183.5,144.1h0.9l-16.1-62.7h-14.1l16,62.4c-0.1,0.6-0.1,1.3-0.1,2.1c0.2,68.3-1.7,140.9,2.1,208.2
		c0,0.4,0.1,0.8,0.1,1.1c-0.3,2.8,0.1,6.4,1.2,5.8c1.7-0.9,5.9-0.6,7-7.4c2.4-15.9,1-43.9,1.2-61.4
		C182.4,242.8,182.9,193.5,183.5,144.1z"/>
	<polygon fill="#FAAE1B" points="149.4,6.6 134.7,6.6 145.3,48 160,48 	"/>
	<path fill="#FAAE1B" d="M248.5,144.1h0.5l-0.6-2.2c0-0.3,0-0.6,0-1c-0.1-2.6-0.7-3.9-1.3-4l-14.3-55.5h-13.2l7.4,30.3
		c-9-22.3-17.4-33.4-25.4-33.4c-7.1,0-10.5,8.4-10.3,25.1c0.1,9.6,1.6,21.5,4.1,35.3c-0.3,0.7-0.5,1.9-0.5,3.6
		c1.4,46.1,0.2,130.8,16,150.9c10.8,13.8,21.6-6.8,26.7-38.2c-0.3,29-1.1,57.8-2.4,86.5c-1.1,23.1-2.8,41.6-11.1,43.9
		c-8,2.3-14-20.6-14.2-46.1c0-4.6-1.9-5.6-2.5-1.8c-2.7,17.1-7.9,15.9-12,25.3c-0.4,0.9-0.7,2.4-0.6,4c0.8,29.3,11.3,56,18.4,67.5
		c9.7,15.6,21.7-7.1,28.6-30c8-26.5,9.9-67.5,10-103.4C252.4,248.9,249.9,195.8,248.5,144.1z M223,238.8c-2.4,5.7-9.9,15.7-10.8-5.7
		c-0.4-9.6,0-20.3,0.1-29.9c0.1-19.2,0.1-38.5,0.2-57.7c0-2.3-0.4-3.6-0.9-4c-0.4-3.1-0.7-6.2-0.8-8.8c-0.3-9.7,1.3-14.6,4.9-14.6
		c3.7,0,8.1,5.2,13.2,15.7c1.3,2.6,2.5,5.5,3.7,8.5c-0.2,0.7-0.3,1.7-0.3,3C233.4,180.2,232.2,217.1,223,238.8z"/>
	<path fill="#FAAE1B" d="M295.2,222.8c-1.3-35.7-11.9-68-20.1-87.4c-0.7-1.7-1.6-0.7-2,1.1c-0.4-1.2-0.8-2.3-1.2-3.6
		c-1.5-5.8-1.8-10.5-1-14.1c0.8-3.6,2.6-5.3,5.4-5.3c3.7,0,8.3,2.4,14,7.2L282.2,85c-5.9-4.5-11.3-6.7-16.1-6.7
		c-6.9,0-11,5.2-12.4,15.5c-1.3,10.3,0.2,24.1,4.6,41.4c0.8,3.1,1.6,6.1,2.5,9h0.1c-0.2,0.9-0.2,2.1,0,3.4
		c3.6,31.6,13.6,39.5,20.4,61.3c5.6,18.3,6.8,46.6,4.9,70.9c-1.1,14.1-3.9,26.6-7.3,35.1c-7.1,3.4-10.7-5.4-10.8-26.4
		c-0.1-5.1-0.2-10.2-0.1-15.3c0-2.6-0.9-5.2-1.7-4c-2.6,3.9-5.1,6.6-7.8,8.5c-0.8,0.5-1,3.4-0.9,5.6c1.6,27.4,1.3,70.4,10.8,81.2
		c10.3,11.6,17.1-0.5,21.7-32.6C294.6,301.3,296.4,256.4,295.2,222.8z"/>
	<path fill="#FAAE1B" d="M356.3,292.8c0-2.2-0.7-4.6-1.4-4.2c-7.2,3.8-14.5,6.4-21.8,8.1c2-19.7,4-39.6,5.7-59.6
		c3.5-30.3,6-61.7,7.3-94.3c0.1-2.4-0.3-4.1-0.9-4.9l-0.2-19.5l-9.5-37.1h-43.4l9.1,35.3h23.2c2.1,0,3.5-0.2,4.3-0.7
		c-0.5,4.4-0.8,11.7-0.6,21.7l0,3.3c-0.3,0.8-0.4,1.8-0.5,3.3c-0.6,34.9-2.3,69.1-5,102.8c-2.5,31.8-6.5,61.9-8.4,94.3
		c-0.2,2.8,0.5,5.5,1.3,5.4c1.1-0.1,2.2-0.3,3.3-0.4c0.4,2.7,1.8,3.2,2.4,0l0.1-0.3c11.3-1.4,22.7-3,34-5c0.7-0.1,1.2-2.2,1.3-4.7
		C356.7,321.9,356.6,307.4,356.3,292.8z"/>
	<polygon fill="#FAAE1B" points="342.3,6.6 327.6,6.6 338.2,48 352.9,48 	"/>
	<path fill="#FAAE1B" d="M377.3,144.1l-0.4-1.7c0-2-0.5-3.4-1-3.8l-14.7-57.1h-14.1l16.1,62.7h0.2c-0.1,0.7-0.2,1.5-0.2,2.6
		c0.5,31.6,0.8,63.2,0.7,94.9c0,17.3-0.2,34.5-0.4,51.8c-0.1,8.3-0.3,14.9,0.6,21.8c-0.3,2-0.2,4.5,0.6,5.7c2,3.2,6.2,14.2,8.6,9
		c3.2-6.9,2.9-30.1,3.1-40.9c1.2-48.5-2.2-96.5,0.4-144.8H377.3z"/>
	<path fill="#FAAE1B" d="M441,140.8c-0.5-1.8-1-3.7-1.5-5.4c-2.4-7.9-4.9-15.5-7.6-22.8c-2.7-7.2-5.4-13.3-8-18.2
		c-2.6-4.9-5.4-8.7-8.3-11.6c-2.9-2.8-5.8-4.3-8.7-4.3c-8.1,0-11.4,10.9-10.1,32.6l-8-29.9h-13.4c4.2,15.2,8.3,30.3,12.1,45.2
		l4.5,17.5h0.5c-2.4,74.1-3.5,148.5-3.2,223c0,0.7,0,1.2,0.1,1.7c0,1.7,0.3,3.2,1,3.5c0.6,0.2,1.2,0.4,1.8,0.6
		c0.4,3.5,1.8,4.1,2.4,0.8c0.5,0.2,1,0.3,1.5,0.5c1.1,0.4,2.2,0.6,3.1-1.6c1.3-0.8,1.8-5.3,2.1-10.1l0.5-1.5
		c0.7-2.1,0.4-4.8-0.2-6.2c0-0.3,0-0.6,0-0.9c0.9-23,0.3-47,1-70.2c1.4-46.6,4.1-92.5,4.1-139.6h0.9c-0.6-3.6-0.9-6.7-1.1-9.1
		c-0.3-4.3-0.2-7.7,0.2-10.2c0.5-2.5,1.1-4.2,2-5c0.9-0.8,1.9-1.2,3.2-1.2c3.6,0,7.2,4.4,10.9,13.3c1.2,2.9,2.5,6.5,3.8,10.6
		c0,0.2,0,0.4,0,0.6c0.5,67.8-1.4,134.6-2.5,202.1c-0.3,1.7-0.2,4.3,0.3,5.4c0,0.1,0.1,0.2,0.1,0.3c0.5,1.3,1.1,1.2,1.5,0.3
		c2.1,4,6.4,11.1,7.9,4c3.4-16.2,4-38.5,4.7-57.6c1.8-50.2,2.6-101,3.8-151.4C442.4,142.9,441.7,141,441,140.8z"/>
	<path fill="#FAAE1B" d="M482.9,244.7c0-1.8,0-3.5,0-5.3c0-1.9-0.3-3.2-0.8-3.7c-1.6-19-4-37.3-6.6-54.9
		c-1.8-11.7-3.8-26.6-6.7-36.6h0.1c0,0-0.1-0.1-0.1-0.1c-1-3.4-2.1-6.2-3.4-8.2c-0.1-0.2-0.3-0.2-0.4-0.3c-0.3-0.9-0.6-1.6-0.8-2.5
		c-1.5-5.8-1.8-10.5-1-14.1c0.8-3.6,2.6-5.3,5.4-5.3c3.7,0,8.3,2.4,14,7.2L474.5,85c-5.9-4.5-11.3-6.7-16.1-6.7
		c-6.9,0-11,5.2-12.4,15.5c-1.3,10.3,0.2,24.1,4.6,41.4c0.8,3,1.6,5.8,2.4,8.5c0,0.2,0,0.3,0,0.4c2.3,25.2,8.6,36.6,13.2,53.8
		c0.1,0.5,0.2,1.1,0.3,1.6c0.1,0.7,0.3,1.1,0.5,1.4c1.3,5.5,2.5,11.6,3.3,19c4,36.6,9.7,112.4-6,128.1c-0.2-18.4-0.5-36.7-1-55.1
		c-0.1-2.7-0.9-5.1-1.7-4c-1.6,2-3,2.9-4.7,2.9c-0.7,0-1,1.5-1.1,3.2c-0.2,0.6-0.3,1.2-0.4,2.1c0,0.3,0,0.5-0.1,0.8
		c-0.5-0.2-0.9,0.4-1.2,2.3c-3.2,22.4-4.9,65.1,1,84.2c2.7,8.7,8.2,3.5,11.3,1.6c4.6-2.9,9.8-10.9,12.5-24.7
		c0.9-4.8,1.7-9.8,2.4-15.1c0.6-2.3,1.1-4.8,1.4-7.8c0.2-1.6,0.1-3.1-0.1-4.2C485.2,305.6,484.8,272.9,482.9,244.7z"/>
</g>
</svg>
