<?xml version="1.0" encoding="utf-8"?>
<!-- Generator: Adobe Illustrator 18.0.0, SVG Export Plug-In . SVG Version: 6.00 Build 0)  -->
<!DOCTYPE svg PUBLIC "-//W3C//DTD SVG 1.1//EN" "http://www.w3.org/Graphics/SVG/1.1/DTD/svg11.dtd">
<svg version="1.1" id="Layer_1" xmlns="http://www.w3.org/2000/svg" xmlns:xlink="http://www.w3.org/1999/xlink" x="0px" y="0px"
	 viewBox="0 0 1190.6 841.9" enable-background="new 0 0 1190.6 841.9" xml:space="preserve">
<g>
	<g>
		<path fill="#FFFFFF" d="M592.8,461c-115.3,0-215.5-95.2-215.5-215.5S472.5,30.1,592.8,30.1s215.5,100.2,215.5,215.5
			S713,461,592.8,461z M592.8,75.2c-95.2,0-170.4,75.2-170.4,170.4s75.2,170.4,170.4,170.4s170.4-75.2,170.4-170.4
			S688,75.2,592.8,75.2z"/>
	</g>
	<g>
		<path fill="#FFFFFF" d="M953.6,801.8H232v-20c0-200.5,160.4-360.8,360.8-360.8s360.8,160.4,360.8,360.8V801.8z M277.1,761.7h636.4
			C903.5,596.3,763.2,461,592.8,461S287.1,591.3,277.1,761.7z"/>
	</g>
</g>
</svg>
