<?xml version="1.0" encoding="utf-8"?>
<!-- Generator: Adobe Illustrator 18.0.0, SVG Export Plug-In . SVG Version: 6.00 Build 0)  -->
<!DOCTYPE svg PUBLIC "-//W3C//DTD SVG 1.1//EN" "http://www.w3.org/Graphics/SVG/1.1/DTD/svg11.dtd">
<svg version="1.1" id="Layer_1" xmlns="http://www.w3.org/2000/svg" xmlns:xlink="http://www.w3.org/1999/xlink" x="0px" y="0px"
	 viewBox="0 0 15.5 16.8" enable-background="new 0 0 15.5 16.8" xml:space="preserve">
<g>
	<g>
		<path fill="#010101" d="M7.7,9.2c-2.3,0-4.3-1.9-4.3-4.3s1.9-4.3,4.3-4.3S12,2.6,12,4.9S10.1,9.2,7.7,9.2z M7.7,1.5
			C5.8,1.5,4.3,3,4.3,4.9s1.5,3.4,3.4,3.4c1.9,0,3.4-1.5,3.4-3.4S9.6,1.5,7.7,1.5z"/>
	</g>
	<g>
		<path fill="#010101" d="M14.9,16H0.5v-0.4c0-4,3.2-7.2,7.2-7.2c4,0,7.2,3.2,7.2,7.2V16z M1.4,15.2h12.7c-0.2-3.3-3-6-6.4-6
			S1.6,11.8,1.4,15.2z"/>
	</g>
</g>
</svg>
