<?xml version="1.0" encoding="utf-8"?>
<!-- Generator: Adobe Illustrator 18.0.0, SVG Export Plug-In . SVG Version: 6.00 Build 0)  -->
<!DOCTYPE svg PUBLIC "-//W3C//DTD SVG 1.1//EN" "http://www.w3.org/Graphics/SVG/1.1/DTD/svg11.dtd">
<svg version="1.1" id="Layer_1" xmlns="http://www.w3.org/2000/svg" xmlns:xlink="http://www.w3.org/1999/xlink" x="0px" y="0px"
	 viewBox="0 0 124.7 51.1" enable-background="new 0 0 124.7 51.1" xml:space="preserve">
<path fill="#FFFFFF" d="M19.6,30.1c6.4,6.4,12.7,12.7,19,19c-0.3,0-0.4,0-0.5,0c-4.2,0-8.4,0-12.6,0c-0.2,0-0.5-0.1-0.7-0.3
	C17,41.1,9.2,33.3,1.4,25.5c-0.1-0.1-0.2-0.2-0.3-0.3c0.1-0.1,0.2-0.3,0.3-0.4C9.2,17.2,17,9.5,24.7,1.8c0.2-0.2,0.5-0.3,0.8-0.3
	c9.4,0,18.8,0,28.2,0c3.4,0,6.3,1.4,8.7,3.8c4.6,4.6,9.2,9.2,13.8,13.8c1,1,2.1,1.5,3.6,1.5c8.1,0,16.2,0,24.3,0c0.2,0,0.4,0,0.7,0
	c-6.4-6.4-12.7-12.7-18.9-19c0,0,0-0.1,0-0.1c0.2,0,0.3,0,0.5,0c4.2,0,8.5,0,12.7,0c0.4,0,0.6,0.1,0.9,0.4
	c7.6,7.6,15.3,15.3,22.9,22.9c0.1,0.1,0.2,0.2,0.4,0.4c-0.2,0.2-0.3,0.3-0.4,0.5c-7.2,7.3-14.5,14.7-21.7,22c-0.5,0.5-1,1.2-1.6,1.5
	c-0.6,0.3-1.4,0.1-2.1,0.1c-8.7,0-17.4,0-26.2,0c-3.6,0-6.7-1.3-9.2-3.8c-3.9-3.8-7.7-7.8-11.5-11.7c-0.8-0.8-1.5-1.6-2.3-2.4
	c-0.8-0.9-1.9-1.3-3.1-1.3c-5.4,0-10.8,0-16.2,0c-2.9,0-5.9,0-8.8,0C20,30.1,19.9,30.1,19.6,30.1z M104.8,30.1c-0.3,0-0.5,0-0.7,0
	c-8.3,0-16.5,0-24.8,0c-3.5,0-6.6-1.1-9.1-3.5c-1.2-1.1-2.3-2.3-3.5-3.5c-3.6-3.6-7.2-7.2-10.8-10.8c-0.9-0.9-1.8-1.4-3.1-1.4
	c-7.8,0-15.6,0-23.4,0c-0.3,0-0.6,0.1-0.8,0.3c-2.9,2.9-5.8,5.9-8.7,8.9c-0.1,0.1-0.2,0.2-0.3,0.4c0.3,0,0.5,0,0.7,0
	c8.4,0,16.8,0,25.2,0c1.2,0,2.5,0.2,3.7,0.5c2.3,0.6,4.2,2,5.9,3.7c4.4,4.4,8.8,8.8,13.2,13.2c1,1,2.1,1.4,3.5,1.4
	c7.8,0,15.5,0,23.3,0c0.4,0,0.6-0.1,0.9-0.4c2.9-2.9,5.7-5.7,8.6-8.6C104.5,30.4,104.6,30.3,104.8,30.1z"/>
</svg>
