<?xml version="1.0" encoding="utf-8"?>
<!-- Generator: Adobe Illustrator 18.0.0, SVG Export Plug-In . SVG Version: 6.00 Build 0)  -->
<!DOCTYPE svg PUBLIC "-//W3C//DTD SVG 1.1//EN" "http://www.w3.org/Graphics/SVG/1.1/DTD/svg11.dtd">
<svg version="1.1" id="Layer_1" xmlns="http://www.w3.org/2000/svg" xmlns:xlink="http://www.w3.org/1999/xlink" x="0px" y="0px"
	 viewBox="0 0 403.6 470.9" enable-background="new 0 0 403.6 470.9" xml:space="preserve">
<g>
	<rect x="-162.4" y="0" fill="#7158A5" width="753.2" height="509.5"/>
	<g>
		<path fill="#FAAE1B" d="M36,387.9c-4.3-11.9-9.6-17.4-14.8-23.5c-6.8-8.1-13.6-15.3-20.5-21.8c0.3-0.7,0.5-1.9,0.4-3.5
			C0,291.1-0.3,243.2,0.2,195.1h29l-6.7-26H-3.9l-15.3-59.5H9.7L-0.9,68.3h-43.7L-12,195.1h0.2c-1.5,63.6-2.3,127.3-2.5,191.1
			c0,3,0.7,4.3,1.4,4.1c0.2,0.8,0.4,1.6,0.7,2c6.3,7.3,12.9,10,19.5,14.3c7.4,5,14.5,14.7,21.2,26.8c0.5,0.9,0.9,0.6,1.3-0.3
			c0.4-0.2,0.7-0.8,1-2.1c2.1-11.6,3.9-23.6,5.3-36.2c0-0.1,0-0.2,0-0.3C36.5,392.9,36.7,390,36,387.9z"/>
		<path fill="#FAAE1B" d="M95.1,196.7c0.1-2.7-0.4-4.6-1.1-5.1c-0.5-1.8-1-3.6-1.5-5.2c-2.4-7.9-4.9-15.5-7.6-22.8
			c-2.7-7.2-5.4-13.3-8-18.2c-2.6-4.9-5.4-8.7-8.3-11.6c-2.9-2.8-5.8-4.3-8.7-4.3c-8.1,0-11.4,10.9-10.1,32.6l-8-29.9H28.5
			c4.2,15.2,8.3,30.3,12.1,45.2l3.6,14v0c1,39.7,2,79.4,2.6,119.2c0.2,14.1,0.3,28.1,0.4,42.2c-0.2,0.8-0.4,1.9-0.4,3.4
			c0.1,2.9,0.2,6.3,0.4,10c0,1.4,0,2.7,0,4.1c0,18.4-0.6,36.2,1.5,53.5c0.4,3.7,1.8,3.5,2.3,1.3c2.8,2.5,5.7,4.2,8.6,4.9
			c0.5,0.1,0.8-0.6,1-1.6c0.7-0.1,1.3-1.6,1.1-4.4c-3.3-76-3.7-152.5-1-228.8c0.1-2.4-0.3-4-0.8-4.8c-0.2-1.7-0.4-3.3-0.5-4.7
			c-0.3-4.3-0.2-7.7,0.2-10.2c0.5-2.5,1.1-4.2,2-5c0.9-0.8,1.9-1.2,3.2-1.2c3.6,0,7.2,4.4,10.9,13.3c1.3,3.2,2.8,7.2,4.3,11.8
			c-0.7,41.5,1.2,82.9,1.5,124.4c0.1,20-0.1,40-0.3,59.9c-0.2,15.3-0.9,29.5,1.2,43.5c0.2,1.6,0.6,2.2,1,2.1
			c1.4,7.2,6.3-2.8,8.1-7.6c0.8,0.5,1.7-1,1.6-4.4c-0.4-33.2,0.3-65.6,1.1-98.6C95.3,274.8,93.6,235.6,95.1,196.7z"/>
		<path fill="#FAAE1B" d="M122.1,195.1h0.9L107,132.4H92.9l16,62.4c-0.1,0.6-0.1,1.3-0.1,2.1c0.2,68.3-1.7,140.9,2.1,208.2
			c0,0.4,0.1,0.8,0.1,1.1c-0.3,2.8,0.1,6.4,1.2,5.8c1.7-0.9,5.9-0.6,7-7.4c2.4-15.9,1-43.9,1.2-61.4
			C121,293.9,121.6,244.5,122.1,195.1z"/>
		<polygon fill="#FAAE1B" points="88,57.6 73.3,57.6 84,99 98.7,99 		"/>
		<path fill="#FAAE1B" d="M187.2,195.1h0.5l-0.6-2.2c0-0.3,0-0.6,0-1c-0.1-2.6-0.7-3.9-1.3-4l-14.3-55.5h-13.2l7.4,30.3
			c-9-22.3-17.4-33.4-25.4-33.4c-7.1,0-10.5,8.4-10.3,25.1c0.1,9.6,1.6,21.5,4.1,35.3c-0.3,0.7-0.5,1.9-0.5,3.6
			c1.4,46.1,0.2,130.8,16,150.9c10.8,13.8,21.6-6.8,26.7-38.2c-0.3,29-1.1,57.8-2.4,86.5c-1.1,23.1-2.8,41.6-11.1,43.9
			c-8,2.3-14-20.6-14.2-46.1c0-4.6-1.9-5.6-2.5-1.8c-2.7,17.1-7.9,15.9-12,25.3c-0.4,0.9-0.7,2.4-0.6,4c0.8,29.3,11.3,56,18.4,67.5
			c9.7,15.6,21.7-7.1,28.6-30c8-26.5,9.9-67.5,10-103.4C191.1,299.9,188.6,246.8,187.2,195.1z M161.7,289.9
			c-2.4,5.7-9.9,15.7-10.8-5.7c-0.4-9.6,0-20.3,0.1-29.9c0.1-19.2,0.1-38.5,0.2-57.7c0-2.3-0.4-3.6-0.9-4c-0.4-3.1-0.7-6.2-0.8-8.8
			c-0.3-9.7,1.3-14.6,4.9-14.6c3.7,0,8.1,5.2,13.2,15.7c1.3,2.6,2.5,5.5,3.7,8.5c-0.2,0.7-0.3,1.7-0.3,3
			C172,231.3,170.8,268.2,161.7,289.9z"/>
		<path fill="#FAAE1B" d="M233.8,273.9c-1.3-35.7-11.9-68-20.1-87.4c-0.7-1.7-1.6-0.7-2,1.1c-0.4-1.2-0.8-2.3-1.2-3.6
			c-1.5-5.8-1.8-10.5-1-14.1c0.8-3.6,2.6-5.3,5.4-5.3c3.7,0,8.3,2.4,14,7.2l-8.1-35.7c-5.9-4.5-11.3-6.7-16.1-6.7
			c-6.9,0-11,5.2-12.4,15.5c-1.3,10.3,0.2,24.1,4.6,41.4c0.8,3.1,1.6,6.1,2.5,9h0.1c-0.2,0.9-0.2,2.1,0,3.4
			c3.6,31.6,13.6,39.5,20.4,61.3c5.6,18.3,6.8,46.6,4.9,70.9c-1.1,14.1-3.9,26.6-7.3,35.1c-7.1,3.4-10.7-5.4-10.8-26.4
			c-0.1-5.1-0.2-10.2-0.1-15.3c0-2.6-0.9-5.2-1.7-4c-2.6,3.9-5.1,6.6-7.8,8.5c-0.8,0.5-1,3.4-0.9,5.6c1.6,27.4,1.3,70.4,10.8,81.2
			c10.3,11.6,17.1-0.5,21.7-32.6C233.2,352.4,235,307.5,233.8,273.9z"/>
		<path fill="#FAAE1B" d="M294.9,343.8c0-2.2-0.7-4.6-1.4-4.2c-7.2,3.8-14.5,6.4-21.8,8.1c2-19.7,4-39.6,5.7-59.6
			c3.5-30.3,6-61.7,7.3-94.3c0.1-2.4-0.3-4.1-0.9-4.9l-0.2-19.5l-9.5-37.1h-43.4l9.1,35.3h23.2c2.1,0,3.5-0.2,4.3-0.7
			c-0.5,4.4-0.8,11.7-0.6,21.7l0,3.3c-0.3,0.8-0.4,1.8-0.5,3.3c-0.6,34.9-2.3,69.1-5,102.8c-2.5,31.8-6.5,61.9-8.4,94.3
			c-0.2,2.8,0.5,5.5,1.3,5.4c1.1-0.1,2.2-0.3,3.3-0.4c0.4,2.7,1.8,3.2,2.4,0l0.1-0.3c11.3-1.4,22.7-3,34-5c0.7-0.1,1.2-2.2,1.3-4.7
			C295.3,372.9,295.2,358.4,294.9,343.8z"/>
		<polygon fill="#FAAE1B" points="280.9,57.6 266.2,57.6 276.9,99 291.6,99 		"/>
		<path fill="#FAAE1B" d="M316,195.1l-0.4-1.7c0-2-0.5-3.4-1-3.8l-14.7-57.1h-14.1l16.1,62.7h0.2c-0.1,0.7-0.2,1.5-0.2,2.6
			c0.5,31.6,0.8,63.2,0.7,94.9c0,17.3-0.2,34.5-0.4,51.8c-0.1,8.3-0.3,14.9,0.6,21.8c-0.3,2-0.2,4.5,0.6,5.7c2,3.2,6.2,14.2,8.6,9
			c3.2-6.9,2.9-30.1,3.1-40.9c1.2-48.5-2.2-96.5,0.4-144.8H316z"/>
		<path fill="#FAAE1B" d="M379.6,191.9c-0.5-1.8-1-3.7-1.5-5.4c-2.4-7.9-4.9-15.5-7.6-22.8c-2.7-7.2-5.4-13.3-8-18.2
			c-2.6-4.9-5.4-8.7-8.3-11.6c-2.9-2.8-5.8-4.3-8.7-4.3c-8.1,0-11.4,10.9-10.1,32.6l-8-29.9H314c4.2,15.2,8.3,30.3,12.1,45.2
			l4.5,17.5h0.5c-2.4,74.1-3.5,148.5-3.2,223c0,0.7,0,1.2,0.1,1.7c0,1.7,0.3,3.2,1,3.5c0.6,0.2,1.2,0.4,1.8,0.6
			c0.4,3.5,1.8,4.1,2.4,0.8c0.5,0.2,1,0.3,1.5,0.5c1.1,0.4,2.2,0.6,3.1-1.6c1.3-0.8,1.8-5.3,2.1-10.1l0.5-1.5
			c0.7-2.1,0.4-4.8-0.2-6.2c0-0.3,0-0.6,0-0.9c0.9-23,0.3-47,1-70.2c1.4-46.6,4.1-92.5,4.1-139.6h0.9c-0.6-3.6-0.9-6.7-1.1-9.1
			c-0.3-4.3-0.2-7.7,0.2-10.2c0.5-2.5,1.1-4.2,2-5c0.9-0.8,1.9-1.2,3.2-1.2c3.6,0,7.2,4.4,10.9,13.3c1.2,2.9,2.5,6.5,3.8,10.6
			c0,0.2,0,0.4,0,0.6c0.5,67.8-1.4,134.6-2.5,202.1c-0.3,1.7-0.2,4.3,0.3,5.4c0,0.1,0.1,0.2,0.1,0.3c0.5,1.3,1.1,1.2,1.5,0.3
			c2.1,4,6.4,11.1,7.9,4c3.4-16.2,4-38.5,4.7-57.6c1.8-50.2,2.6-101,3.8-151.4C381.1,194,380.3,192.1,379.6,191.9z"/>
		<path fill="#FAAE1B" d="M421.5,295.7c0-1.8,0-3.5,0-5.3c0-1.9-0.3-3.2-0.8-3.7c-1.6-19-4-37.3-6.6-54.9
			c-1.8-11.7-3.8-26.6-6.7-36.6h0.1c0,0-0.1-0.1-0.1-0.1c-1-3.4-2.1-6.2-3.4-8.2c-0.1-0.2-0.3-0.2-0.4-0.3c-0.3-0.9-0.6-1.6-0.8-2.5
			c-1.5-5.8-1.8-10.5-1-14.1c0.8-3.6,2.6-5.3,5.4-5.3c3.7,0,8.3,2.4,14,7.2l-8.1-35.7c-5.9-4.5-11.3-6.7-16.1-6.7
			c-6.9,0-11,5.2-12.4,15.5c-1.3,10.3,0.2,24.1,4.6,41.4c0.8,3,1.6,5.8,2.4,8.5c0,0.2,0,0.3,0,0.4c2.3,25.2,8.6,36.6,13.2,53.8
			c0.1,0.5,0.2,1.1,0.3,1.6c0.1,0.7,0.3,1.1,0.5,1.4c1.3,5.5,2.5,11.6,3.3,19c4,36.6,9.7,112.4-6,128.1c-0.2-18.4-0.5-36.7-1-55.1
			c-0.1-2.7-0.9-5.1-1.7-4c-1.6,2-3,2.9-4.7,2.9c-0.7,0-1,1.5-1.1,3.2c-0.2,0.6-0.3,1.2-0.4,2.1c0,0.3,0,0.5-0.1,0.8
			c-0.5-0.2-0.9,0.4-1.2,2.3c-3.2,22.4-4.9,65.1,1,84.2c2.7,8.7,8.2,3.5,11.3,1.6c4.6-2.9,9.8-10.9,12.5-24.7
			c0.9-4.8,1.7-9.8,2.4-15.1c0.6-2.3,1.1-4.8,1.4-7.8c0.2-1.6,0.1-3.1-0.1-4.2C423.8,356.7,423.5,324,421.5,295.7z"/>
	</g>
	<g>
		<line fill="none" stroke="#F3F3F3" stroke-miterlimit="10" x1="549.7" y1="22.8" x2="569.5" y2="42.6"/>
		<line fill="none" stroke="#F3F3F3" stroke-miterlimit="10" x1="569.5" y1="22.8" x2="549.7" y2="42.6"/>
	</g>
	<text transform="matrix(1 0 0 1 453.9606 39.4479)" fill="#F3F3F3" font-family="'MyriadPro-Regular'" font-size="30">sluiten</text>
</g>
<g>
	<path fill="#F3F3F3" d="M-45.4,324.2c-0.2-3.7-0.1-7.4-0.2-11.2c-0.1-5.7-0.3-11.3-1.4-16.9c0-1.3,0.1-2.6-0.3-3.9
		c-0.1-0.5-0.8-0.9-1.4-1.3l-2.1-1.8c-6.5-5.4-15.2-11.1-23.5-11.1c-3.4,0-5.5,1-6,2.4l5,3.2c0.4-1.2,2.1-2,4.6-2
		c5.5,0,10.9,4,13.6,6.3l0.7,0.6c-5.8,0-8.8,1-9.1,3.1c-0.1,0.1-0.1,0.3-0.1,0.4c0.4,6.3,0.8,12.7,1,19c0.2,6.2-1,12.3,0.5,18.5
		c1.1,4.3,3.4,6.5,7.9,6c2.5-0.3,4.6-1.5,5.9-3.3c0.1,0.5,0.3,1.1,0.5,1.5c0.6,0.9,2.8,0.6,3.7,0.7c0.4,0,0.7-0.3,0.8-0.6
		C-44.5,330.7-45.3,327.3-45.4,324.2z M-54.8,327.6c-0.6,0.7-1.5,1.1-2.7,0.6c-1.9-0.7-2.7-3.5-3.1-5.2c0-0.2-0.1-0.3-0.2-0.4
		c-0.2-1-0.2-1.8-0.2-2c-0.1-3,0.1-5.9,0.1-8.9c0-6.6-0.2-13.2-0.6-19.7h6.9c0.7,2.7,0.4,5.9,0.6,8.6c0.1,3.2,0.3,6.5,0.4,9.7
		C-53.6,312.8-52.4,323.4-54.8,327.6z"/>
	<path fill="#F3F3F3" d="M-17.3,341c-0.1-3.5-0.5-7-0.9-10.5c-0.8-6.7-1.8-13.3-1.7-20c0.1-6.2,0.6-12.4-0.8-18.5h0.1l-0.1-0.1
		c0,0,0-0.1,0-0.1c-0.1-0.4-0.4-0.6-0.8-0.6l-2.4-2c-6.5-5.4-15.2-11.1-23.5-11.1c-3.4,0-5.5,1-6,2.4l5,3.2c0.4-1.2,2.1-2,4.6-2
		c5.5,0,10.9,4,13.6,6.3l0.7,0.6c-5,0-7.9,0.8-8.9,2.3c-0.1,0.1-0.2,0.2-0.3,0.4c-0.9,2.7,0,5.6,0.2,8.3c0.4,3.8,0.4,7.7,0.4,11.6
		c0,7.7-0.4,15.4,0.5,23.1c0.5,4.4,1.7,10.3,7.4,10.3c3.7,0,5.7-2.3,7-5.3c0.1,1.3,0.3,2.5,0.7,3.7c0.4,1.2,3,1,3.8,0.8
		C-17.1,343.3-17.2,342.4-17.3,341z M-27.7,336c-0.6,1.7-1.8,1.6-3.4-0.2c-0.4-1.1-0.5-2.4-0.6-3.5c-0.2-1.8-0.2-3.5-0.3-5.3
		c-0.2-4-0.4-8-0.6-12c-0.4-7.6-0.6-15.3-0.8-22.9c0-0.1,0-0.1,0-0.1h6.1c0.8,7.5,0,14.8,0.3,22.3C-26.7,321.6-24.4,329-27.7,336z"
		/>
	<path fill="#F3F3F3" d="M11.8,323c-0.1-0.1-0.1-0.2-0.2-0.2c-0.1-9.3-0.4-18.5-0.8-27.8c0-0.1,0-0.3-0.1-0.4
		c0.1-0.9,0.1-1.9-0.3-2.7h0l0,0c-0.1-0.1-0.1-0.2-0.2-0.3c-0.1-0.1-0.2-0.1-0.3-0.2l-2.2-1.9c-11.1-9.3-19.5-11.5-23.3-11.5
		c-4.5,0-4.6,2.5-2.9,5.1h-0.1l-5.6-4.5h-4.4c2.8,2.2,5.6,4.5,9,7.3l6.7,5.6c0,0,0,0.1,0,0.1c0.4,2.3,0.9,4.4,1.1,6.7
		c0.4,5.4,0.6,10.8,0.9,16.2c0,0.4,0.3,0.7,0.6,0.8c1.1,0.3,2,0.2,3-0.5c0.4-0.2,0.4-0.6,0.3-0.9c0.1-0.1,0.1-0.3,0.1-0.5
		c-0.6-7.2-1-14.4-1.3-21.6c0,0,0,0,0,0h0.4l-0.5-0.4c-0.1-0.1-0.1-0.1-0.2-0.2l-2.2-1.8c-1-0.8-1.9-1.7-2.4-2.3
		c-2.4-2.7-2.6-5,0.6-5c4.6,0,10.6,3.6,15.8,8l1.6,1.3c0.6,5.7,1,11.3,1.3,17c0.1,2.9,0.2,5.7,0.2,8.6c0,2.3-0.3,4.8,0.6,7
		c0.2,0.5,0.8,0.6,1.2,0.5c0.8,0.1,1.7,0.2,2.6,0.2C11.7,324.7,12.4,323.7,11.8,323z"/>
	<path fill="#F3F3F3" d="M54,291.8c0-0.7-0.7-0.9-1.2-0.6c0,0,0,0-0.1,0l-29.9-25.1h-4.9l19.3,16.2H37c-3.8-2.2-9-4.1-13.1-4.1
		c-6.4,0-5.6,5.2,4.1,13.6c0,0.1,0,0.1,0,0.2c-0.1,8.8,0.3,20.8,8.3,26.3c4.8,3.3,11.3,1.8,14.4-2.3c0,0.7,0,1.5,0.5,1.8
		c0.7,0.5,1.3,0.6,1.9,0.4c0.4,0.1,0.8,0.2,1.3,0.3c0.5,0.1,1.1-0.3,1-0.8C54.3,309,53.8,300.5,54,291.8z M42.1,316.2
		c-0.7-0.1-1.3-0.4-1.8-0.7c-0.1-0.4-0.4-0.8-1-0.7c-2.5-2.1-3.6-5.9-4.3-8.9c-1.1-4.6-1.6-9.3-1.8-14h0.1c0,0-0.1,0-0.1-0.1
		c0-0.1,0-0.2,0-0.3c0-0.6-0.6-0.9-1.1-0.7c-0.3-0.3-0.6-0.5-0.8-0.8c-0.1-0.2-0.2-0.4-0.4-0.4c-4.6-4.6-5.6-7.7-1.3-7.7
		c3.7,0,9.4,2.6,13.9,5.7c0.9,0.6,2,1.5,2.7,2.1l2.5,2.1c-0.1,4.4,0,8.8,0.3,13.2C49.3,309.8,49.2,317.7,42.1,316.2z"/>
	<path fill="#F3F3F3" d="M86.6,318.4c-0.1-0.2-0.2-0.4-0.4-0.5c-0.7-0.3-1.5-0.6-2.1-1.1c-0.2-0.1-0.4-0.2-0.6-0.2
		c-0.4-0.3-1-0.3-1.3,0.2c-1.9,3.2-4.1,6.2-8.4,5.3c-4.1-0.9-6.4-4-6.9-8c-0.9-7.3-0.9-14.8-1.4-22.2h18.1c-0.4-0.3-0.8-0.7-1.3-1.1
		c-5.9-5-17.5-12.7-26.4-12.7c-7.6,0-5.2,6,3.6,13.7c0,0.1-0.1,0.2-0.1,0.4c0.2,6.7,0.4,13.4,0.7,20.1c0.2,5.4,2.6,9.6,6.5,13.3
		c3,2.8,7.5,4.8,11.6,3.7c5.2-1.3,6.6-5.3,8.5-9.9C87,319,86.8,318.7,86.6,318.4z M59.9,281.6c5.5,0,12.7,4.9,16.4,8H61.8
		C58.2,286.2,54.9,281.6,59.9,281.6z"/>
	<path fill="#F3F3F3" d="M126.2,292c-0.1-0.1-0.3-0.2-0.4-0.3c0,0,0,0,0-0.1c0-0.6-0.5-0.8-1-0.7c-9.6-7.6-20.7-12.7-28.1-12.7
		c-7.3,0-7.1,5,2.8,13.6c-0.2,0.1-0.3,0.3-0.3,0.6c0.1,7.2-0.2,14.4,2.1,21.3c1.9,5.8,7.2,8.9,13.1,9.7c5.5,0.7,8.5-5.7,10-9.9
		c2.5-6.9,1.6-14.4,1.4-21.5H126.2z M120.1,306.4c-0.4,3.7-1.5,9.9-6.1,10.5c-2.3,0.3-4.4-2.6-5.5-4.2c-1.2-1.8-1.8-3.9-2.4-5.9
		c-1.2-4.7-1.5-9.8-1.7-14.6c0-0.1,0-0.2-0.1-0.3h0.3c-5.9-5-9.4-10.1-3.8-10.1c5.5,0,14.1,5.2,19.6,9.7c-0.2,0.1-0.3,0.4-0.3,0.6
		C120.6,296.9,120.6,301.7,120.1,306.4z"/>
	<path fill="#F3F3F3" d="M171.1,292.7c0.1-0.3-0.1-0.6-0.2-0.7h0.2l-2.5-2.1c-11.2-9.4-19.3-11.7-22.9-11.7c-2.6,0-3.6,0.7-3.7,1.9
		c-0.1,0.8,0.2,2,1.2,3.5H143c-5-3.2-10.4-5.4-14.1-5.4c-4.5,0-4.1,2.4-2.6,5h-0.2l-5.4-4.4h-4.3c2.8,2.2,5.6,4.5,9,7.3l6.7,5.7
		c0,0.1,0,0.1,0,0.2c-0.2,9.8-0.6,19.6-1.3,29.4c-0.1,0.7,0.7,0.9,1.2,0.6c0.9,0.8,2.4,0.9,3.4,0.2c0.2-0.1,0.3-0.3,0.3-0.4
		c0.2-0.1,0.4-0.3,0.4-0.6c1.1-9.6,1.6-19.2,1.6-28.8c0-0.6-0.5-0.8-1-0.7l-2.4-2c-1-0.8-1.9-1.7-2.5-2.4c-2.2-2.5-2.8-4.9,0.2-4.9
		c3.7,0,9.4,3.1,14.5,7.4l2.7,2.2c0,0.1,0,0.2,0,0.2c0.3,8.4,0.7,16.7,1,25.1c0,0.8,0.9,1,1.4,0.5c0,0,0,0,0,0
		c0.9,0.4,1.8,0,2.6-0.3c0.3-0.1,0.6-0.5,0.6-0.8c-0.6-8.1-0.8-16.2-0.6-24.4c0-0.5-0.4-0.8-0.8-0.8l-2.7-2.3
		c-1.1-0.9-2-1.8-2.5-2.5c-2-2.4-2.3-4.5,0.5-4.5c4,0,9.6,3.1,15.8,8.3l1.6,1.3c-0.2,0.1-0.3,0.3-0.3,0.5c-1.3,4.8,0.3,9.5,1,14.3
		c0.8,5.6,0.5,11.3-0.6,16.8c-0.2,0.8,0.6,1.1,1.2,0.9c0,0,0,0,0,0c0.5,1.4,1.8,1.3,2.8,0.3c0.8-0.8,0.9-2.7,1.1-3.7
		c0.3-1.6,0.4-3.2,0.5-4.9C171.8,308.3,169.6,300.6,171.1,292.7z"/>
	<path fill="#F3F3F3" d="M190.9,292h0.5c-1.9-0.7-3.8-1.3-6-1.9c-5.1-1.3-7.9-2.3-10.6-4.6c-2.4-2-2.8-3.7,0.1-3.7
		c2.5,0,5.5,0.9,7.4,1.6l-3-3.6c-2.6-0.9-5.9-1.7-8.7-1.7c-5.8,0-5.1,3.6,0.1,7.9c2.7,2.3,6.2,4.3,10.5,5.9c0,0.4,0.1,0.8,0.6,1
		c1.5,0.5,3.1,1.1,4.6,1.6c2,0.7,2.8,2.8,3.6,4.6c3,6.8-7.9,8.1-7.5,3c0-0.6-0.6-0.9-1.1-0.7c-0.7,0.2-1.4,0.3-2.1,0.3
		c-0.4,0-0.7,0.3-0.7,0.6c-0.1,0.1-0.2,0.3-0.2,0.5c-0.2,6.6,7.3,11.6,12.2,6C194,304.8,196.1,295.2,190.9,292z"/>
	<path fill="#F3F3F3" d="M211.8,327.9c-0.1,0-0.1-0.1-0.2-0.1c0.2-0.6-0.3-1.4-1-1c-1.7,0.8-3.5,0.7-4.4-0.7c-0.1-1.7-0.2-3.3-0.3-5
		c0.1-0.3,0.1-0.6,0.2-1c0.3-2.2,0.1-4.5-0.2-6.8c0-1,0-1.9,0-2.9c0-5.8,0-11.7,0-17.5c0.2-0.3,0.1-0.7,0-0.9h0.2l-30.8-25.9h-4.9
		l30.8,25.9h0.3c-0.2,0.1-0.3,0.4-0.3,0.6c0,6.1-0.1,12.1-0.1,18.2c0,3.2,0,6.4,0,9.6c0,3-0.3,6.1,0.2,9c0.6,3.6,4.6,4.2,7.6,3.5
		C210.9,332.5,215,330.1,211.8,327.9z"/>
	<path fill="#F3F3F3" d="M257.1,311.9c0,0-0.1-0.1-0.1-0.1l-1.5-1.7c-0.3-0.3-0.9-0.3-1.2,0.1c-0.1,0.1-0.1,0.1-0.1,0.2
		c-0.1,0-0.2,0.1-0.4,0.2c-0.8,1-1.6,1.9-2.7,2.6c-0.2,0.1-0.4,0.2-0.6,0.3c-0.6,0.1-1.4,0.3-2.1,0.4c-0.4,0-0.8-0.2-1.2-0.4
		c-0.1-0.2-0.2-0.4-0.3-0.6c-0.9-2.2-1-4.9-1.4-7.3c-0.6-4.4-0.8-8.9-0.7-13.3c0-0.6-0.5-0.8-1-0.7c-6.1-5.3-7.8-9.6-1.9-9.6
		c2.7,0,5.3,0.6,7.2,1.3l-3.4-3.8c-2.1-0.7-5.6-1.4-8.5-1.4c-8.6,0-7.4,5.7,1.8,13.7c0,0.1,0,0.1,0,0.2c0,5.3,0.4,10.5,0.9,15.8
		c0.4,3.7,0.7,7.2,3.3,10c4.9,5.3,13.4,1.5,14.5-5C258,312.3,257.6,311.9,257.1,311.9z"/>
	<path fill="#F3F3F3" d="M292.4,308c-0.8-5.1-3.7-9.9-2.7-15.2c0.1-0.3-0.1-0.6-0.3-0.8h0l-2.7-2.3c-11.1-9.3-19.6-11.6-23.2-11.6
		c-1.8,0-2.9,0.6-3.4,1.4c-0.5,0.8-0.3,2.1,0.6,3.5h-0.1l-20.1-16.9h-4.9l30.3,25.5c0,0,0,0,0,0.1c0.3,7.5,0.5,15.1,0.8,22.6
		c0,0.6,0.7,0.9,1.2,0.7c0.7,0.3,0.9,0.3,1.6,0.5c0.2,0,0.4,0,0.6-0.1c0.5,0.2,1.2,0,1.2-0.7c-0.3-7.5-0.4-15.1-0.1-22.6
		c0,0,0,0,0,0h0.2l-0.3-0.2c-0.1-0.3-0.3-0.4-0.6-0.5l-2.1-1.8c-1.1-1-1.9-1.7-2.5-2.3c-2.3-2.7-2.5-4.9,0.7-4.9
		c4.6,0,10.7,3.7,15.9,8.1l1.7,1.5c-0.2,0.1-0.3,0.3-0.3,0.6c0,5.3,1.5,9.8,3.2,14.7c1.9,5.3-2.2,9.5-1.9,14.8c0,0.6,0.5,0.8,1,0.7
		c0.1,0.1,0.1,0.1,0.2,0.1c0.6,0.3,1.2,0.5,1.9,0.5c0.4,0,0.7-0.3,0.8-0.7c0.1,0,0.3-0.1,0.4-0.1c0.3-0.1,0.6-0.4,0.6-0.8
		c-0.3-2.6,1.1-4.6,1.9-6.9C292.7,312.4,292.7,310.3,292.4,308z"/>
	<path fill="#F3F3F3" d="M316.9,322.6c-0.7-0.5-1.3-1-2-1.4c-0.4-0.3-0.8-0.3-1.2,0.1c-0.2,0.2-0.3,0.5-0.2,0.8
		c-0.5,1-0.9,2-1.6,2.9c-2.1,2.8-4.9,1.3-6.4-1c-1.9-2.8-1.6-7-1.7-10.3c-0.2-7.1-0.5-14.1-0.7-21.2c0-0.2-0.1-0.4-0.2-0.5h0.1
		l-11.3-9.5h7l-4.5-3.7h-7l-9.3-7.8l-3.3,1.3l7.7,6.5h-4.2l4.5,3.7h4.2l11,9.2c0,0.1,0,0.1,0,0.2c-0.2,6.2,0.5,12.6,0.8,18.8
		c0.2,4.8-0.4,11,1.9,15.4c4.1,7.7,15.5,6.2,17.1-2.5C317.9,322.9,317.4,322.6,316.9,322.6z M300.8,318.8c0-0.3,0-0.7-0.1-1
		c0,0,0,0,0,0c0,0.8,0.1,1.5,0.2,2.3c0,0.1,0,0.2,0.1,0.3c0.1,0.9,0.2,1.8,0.4,2.7C301.1,321.7,300.9,320.2,300.8,318.8z"/>
	<path fill="#F3F3F3" d="M296.8,274.2c2,0,1.6-1.3-0.5-3c-2.1-1.7-4.8-3.1-6.7-3.1c-1.8,0-1.5,1.3,0.6,3.1
		C292.2,272.8,295.1,274.2,296.8,274.2z"/>
	<path fill="#F3F3F3" d="M321.1,312.7C321.1,312.7,321.1,312.7,321.1,312.7c-0.2-6.9-0.2-13.8-0.3-20.7c0-0.6-0.6-0.9-1-0.7
		l-14.9-12.5h-4.9l15.3,12.9c0,0.1,0,0.1-0.1,0.2c-0.5,3.2,0.2,6.8,0.4,10l0.8,11.5c0,0.6,0.6,0.9,1.1,0.7c0.1,0.2,0.3,0.3,0.5,0.3
		c0.8,0.1,1.6,0,2.3-0.3c0.2,0,0.3-0.1,0.4-0.2c0,0,0,0,0.1,0C321.2,313.6,321.3,313,321.1,312.7z"/>
	<path fill="#F3F3F3" d="M351.8,313.8c-0.8-7,0.1-14.3,0.4-21.3c0-0.4-0.2-0.6-0.5-0.7l-6.7-5.6c-3.9-3.3-6.4-5.5-8.6-7.4H332
		l4.6,4.1h-0.1c-3.8-2.2-9.3-4.7-14-4.7c-6,0-6,4.8,3.8,13.4c0,0.1-0.1,0.2-0.1,0.4c0.2,4.9,0.6,9.7,1.5,14.5c0.7,4,1.8,8.4,6,10
		c5.5,2,10.8-1.9,13.6-6.6c-0.3,3.9-0.6,7.8-0.8,11.7c-0.1,1.4-0.2,2.8-0.3,4.2c0.2,1.9-0.9,2.9-3.2,3.2c-0.5-0.5-1-1-1.4-1.6
		c-1.4-2.1-1.6-4.9-1.8-7.3c-0.1-0.6-0.7-0.9-1.2-0.7c-0.1,0-0.2,0-0.4,0c-1,0.2-1.9,0.4-2.9,0.4c-0.4,0-0.8,0.4-0.8,0.9
		c0.4,4.5,1,10.4,5.3,13.1c4,2.4,8.2,1.3,10.4-2.8C352.9,325.6,352.4,319.2,351.8,313.8z M339.4,308.5c-8.3,3.8-7.2-12.2-7.1-16.3
		c0-0.6-0.6-0.9-1.1-0.7c-6.8-5.9-7.9-9.6-3.4-9.6c3.6,0,8.8,2.3,13.1,5.2c1,0.7,1.9,1.4,2.9,2.2l2.7,2.3c-0.1,0.1-0.1,0.3,0,0.5
		C348.1,298.4,345.5,305.8,339.4,308.5z"/>
	<path fill="#F3F3F3" d="M382.5,312.8c-0.6-0.3-1.2-0.6-1.6-1.2c-0.2-0.3-0.5-0.4-0.8-0.4c-0.3-0.1-0.7,0-0.9,0.4
		c-1.4,3-3.4,5.6-7,6c-4.2,0.5-6-4.3-6.4-7.6c-0.8-5.9-0.6-12.1-0.7-18.1h16.9c-0.4-0.3-0.8-0.7-1.3-1.1c-5.9-5-17.5-12.7-26.4-12.7
		c-7.6,0-5.2,6,3.8,13.8h0.1c0.4,5.6,0.8,11.1,1.2,16.7c0.3,4,0.1,8.9,3.9,11.4c3.3,2.1,7.7,2.8,11.6,2.1c4-0.7,6.2-4.2,7.3-7.7
		c0-0.1,0-0.1,0-0.2c0.2,0,0.4-0.2,0.6-0.4C383,313.5,382.9,312.9,382.5,312.8z M360.1,289.6c-3.7-3.4-7-8-2-8
		c5.5,0,12.7,4.9,16.4,8H360.1z"/>
	<path fill="#F3F3F3" d="M448,327.2C447.9,327.1,447.9,327.1,448,327.2c-0.1,0-0.2,0-0.2,0c-0.9-5.6-0.4-11.2-0.4-16.8
		c-0.1-6-0.8-12-1.5-17.9c0-0.2-0.1-0.3-0.2-0.4h0.5l-3.3-2.8c-6.5-5.4-15.2-11.1-23.5-11.1c-3.4,0-5.5,1-6,2.4l5,3.2
		c0.4-1.2,2.1-2,4.6-2c5.5,0,10.9,4,13.6,6.3l0.7,0.6c-5.1,0-8,0.8-8.9,2.4c-0.2,0.1-0.4,0.2-0.4,0.4c-0.6,1.6-0.8,3.1-0.5,4.8
		c0.2,0.9,0.3,1.8,0.5,2.8c0,0,0,0,0,0c0,0.1,0,0.2,0,0.3c0.4,2.1,0.8,4.2,1,6.4c0,0,0,0,0,0c-3.1-2.7-6.1-5.3-9.2-8
		c-1.5-1.3-3.1-2.8-4.7-3.9c-1-0.7-2-1.2-3-1.8h0.2l-1.7-0.9c-0.6-0.4-1.2-0.8-1.8-1.2c-0.2-0.1-0.4-0.2-0.6-0.2l-2.8-10.9h-5.9
		l3.2,9.3c0.4,1,0.8,2.1,1.3,3.1h-0.1l-29.9-25.1h-4.9l30.8,25.9h0.1c0.1,0.2,0.2,0.4,0.5,0.5c0.6,11.9,0.5,23.8-0.1,35.7
		c0,0.4,0.2,0.6,0.4,0.7c-0.1,1.3,2,1.1,3.4,0.8c0.4,0.2,1,0.1,1.2-0.4c0.3-0.3,0.3-0.7,0-1.1c-0.5-11,0.3-22.1,0.8-33
		c6.5,5.5,13,11,19.5,16.5c0.1,0.2,0.3,0.4,0.4,0.7c0.3,0.4,1,0.5,1.3,0.1c0.7-0.8,1.3-1.6,1.9-2.5c0.2,4.3,0.3,8.6,0.9,12.8
		c0.4,2.9,1.5,7.1,5.2,7c2.8-0.1,5.7-1.1,7.2-3.4c0.1,0.6,0.1,1.2,0.3,1.8c0.1,0.3,0.4,0.5,0.6,0.6c1.2,0.1,2.3,0.2,3.5,0.1
		c0.7,0,1.7-0.1,1.6-1.1C448.6,327.5,448.3,327.3,448,327.2z M442,292c0.6,8.6,0.7,17.2,0.1,25.8c0,0-0.1,0.1-0.1,0.1
		c-0.5,1.2-1.2,2.3-2,3.3c-2.2,2.6-3.7,0.3-4.2-1.9c-0.7-3.3-1-6.8-1.3-10.2c-0.5-5.7-1-11.5-1.6-17.2H442z"/>
	<path fill="#F3F3F3" d="M477.8,320.6c-0.1-3.3-0.2-6.6-0.3-9.9c-0.2-6.2-0.3-12.4-0.5-18.6c0-0.1,0-0.1,0-0.2h0.2l-0.2-0.2
		c-0.1-0.2-0.2-0.3-0.4-0.3l-2.1-1.8c-11.1-9.3-19.5-11.5-23.3-11.5c-4.5,0-4.6,2.5-2.9,5.1h-0.1l-5.6-4.5h-4.4
		c2.8,2.2,5.6,4.5,9,7.3l6.7,5.6c0,0.1,0,0.1,0,0.2c0,4.9,0.2,9.9,0.5,14.8c0.1,2.5,0.3,4.9,0.6,7.4c0.1,1-0.1,2.9,0.8,3.6
		c0.3,0.3,0.9,0.3,1.2-0.1l0,0c0.6,0,1.2,0,1.8,0c0.3,0,0.7-0.3,0.8-0.6c0-0.1,0-0.1,0-0.2c0.4-0.3,0.7-0.7,0.5-1.2
		c-0.3-7.7-0.6-15.4-0.9-23.2c0-0.2-0.1-0.3-0.1-0.4h0.4l-2.9-2.4c-1-0.8-1.9-1.7-2.4-2.3c-2.4-2.7-2.6-5,0.6-5
		c4.6,0,10.6,3.6,15.8,8l1.5,1.3c0,0.1-0.1,0.2-0.1,0.3c0.1,10.3,0.2,20.6,0.3,30.8c0,0.1,0,0.2,0,0.3c0,0.4,0,0.8,0,1.2
		c0,0.6,0.6,0.9,1.1,0.7c0.8,0.6,2.3,0.4,3.3,0.1c0,0,0,0,0.1,0c0.3,0.3,0.9,0.3,1.2-0.1C478.4,323.9,477.8,321.9,477.8,320.6z"/>
	<path fill="#F3F3F3" d="M500.8,318.5c-0.6-0.5-1.1-1.2-1.5-1.9c-0.4-1-2-0.5-1.6,0.5c0,0,0,0.1,0.1,0.1c-2.6,4.1-7.3,1.6-7.6-2.6
		c-0.2-2.4-0.1-4.9-0.1-7.3c0-5.1,0.1-10.2,0.3-15.2c0,0,0-0.1,0-0.1h0.3l-11.3-9.5h7l-4.5-3.7h-7l-9.3-7.8l-3.3,1.3l7.7,6.5h-4.2
		l4.5,3.7h4.2l11.3,9.4l-0.5,16c-0.1,4.1-1,8.7,1.3,12.4c3.6,5.9,11.9,4.7,15.1-0.7C502.3,318.9,501.4,318.2,500.8,318.5z"/>
	<path fill="#F3F3F3" d="M234.6,321.1c0-0.1-0.1-0.2-0.2-0.3c0.1-9.4-0.1-18.8-0.7-28.3c0-0.4-0.2-0.6-0.5-0.7l-3.1-2.6
		c-6.5-5.4-15.2-11.1-23.5-11.1c-3.4,0-5.5,1-6,2.4l5,3.2c0.4-1.2,2.1-2,4.6-2c5.5,0,10.9,4,13.6,6.3l0.7,0.6
		c-6.1,0-9.1,1.1-9.2,3.4h0.4c0,0,0,0.1,0,0.1c-0.5-0.1-1,0.2-0.9,0.8c0.3,5.4,0.6,10.8,1,16.2c0.2,3.1-0.4,8.7,2.2,11.1
		c2.1,2,6.1,3.8,8.9,2.4c1.7-0.8,2.8-2.1,3.6-3.6c0,0.9,0,1.8,0.1,2.7c0,0.4,0.3,0.7,0.6,0.8c0.6,0.1,1.2,0.1,1.8,0.2
		c0.3,0.4,1.1,0.4,1.3-0.1C234.8,322.2,234.9,321.5,234.6,321.1z M228.6,292c0.3,4.5,0.5,9.1,0.8,13.6c0.3,4.4,0.5,9.8-3.4,12.8
		c-0.7,0.5-1.3,0.8-1.9,0.8c-0.3,0-0.6-0.1-0.8-0.1c-0.1,0-0.2-0.1-0.3-0.1c0.1-0.6-0.6-1.1-1.2-0.9c-1.1-1.2-1.9-3.3-2.1-4.7
		c-0.3-2.2-0.3-4.4-0.4-6.6c-0.2-4.9-0.3-9.9-0.3-14.9c0,0,0,0,0,0H228.6z"/>
</g>
</svg>
