<?xml version="1.0" encoding="utf-8"?>
<!-- Generator: Adobe Illustrator 18.0.0, SVG Export Plug-In . SVG Version: 6.00 Build 0)  -->
<!DOCTYPE svg PUBLIC "-//W3C//DTD SVG 1.1//EN" "http://www.w3.org/Graphics/SVG/1.1/DTD/svg11.dtd">
<svg version="1.1" id="Layer_1" xmlns="http://www.w3.org/2000/svg" xmlns:xlink="http://www.w3.org/1999/xlink" x="0px" y="0px"
	 viewBox="0 0 633.2 267.9" enable-background="new 0 0 633.2 267.9" xml:space="preserve">
<g>
	<rect x="0" y="-123.2" fill="#7158A5" width="633.2" height="428.3"/>
	<g>
		<path fill="#FAAE1B" d="M166.8,202.9c-3.6-10-8.1-14.6-12.4-19.8c-5.7-6.8-11.5-12.8-17.3-18.3c0.2-0.6,0.4-1.6,0.4-3
			c-0.9-40.3-1.1-80.6-0.7-121h24.4L155.5,19h-22.2l-12.9-50h24.3l-8.9-34.8H99l27.4,106.7h0.2c-1.3,53.5-2,107-2.1,160.6
			c0,2.5,0.6,3.6,1.1,3.4c0.1,0.7,0.3,1.3,0.6,1.7c5.3,6.1,10.9,8.4,16.4,12.1c6.3,4.2,12.2,12.4,17.8,22.5c0.4,0.7,0.8,0.5,1.1-0.2
			c0.3-0.1,0.6-0.7,0.8-1.8c1.8-9.7,3.3-19.9,4.5-30.5c0-0.1,0-0.2,0-0.3C167.2,207.1,167.4,204.6,166.8,202.9z"/>
		<path fill="#FAAE1B" d="M216.5,42.2c0.1-2.3-0.4-3.8-0.9-4.3c-0.4-1.5-0.8-3-1.2-4.4c-2-6.7-4.1-13.1-6.4-19.2
			c-2.3-6.1-4.5-11.2-6.7-15.3c-2.2-4.1-4.5-7.3-7-9.7c-2.4-2.4-4.9-3.6-7.3-3.6c-6.8,0-9.6,9.1-8.5,27.4l-6.7-25.1h-11.2
			c3.6,12.8,7,25.4,10.2,38l3,11.8v0c0.8,33.4,1.7,66.8,2.1,100.2c0.2,11.8,0.3,23.7,0.3,35.5c-0.2,0.6-0.3,1.6-0.3,2.8
			c0.1,2.5,0.2,5.3,0.4,8.4c0,1.2,0,2.3,0,3.5c0,15.4-0.5,30.4,1.3,44.9c0.4,3.1,1.5,2.9,2,1.1c2.4,2.1,4.8,3.5,7.2,4.2
			c0.4,0.1,0.7-0.5,0.8-1.3c0.6-0.1,1.1-1.3,1-3.7c-2.8-63.9-3.1-128.2-0.9-192.3c0.1-2-0.3-3.4-0.7-4c-0.2-1.4-0.3-2.8-0.4-3.9
			c-0.3-3.6-0.2-6.5,0.2-8.6s1-3.6,1.7-4.2c0.7-0.7,1.6-1,2.7-1c3,0,6.1,3.7,9.2,11.2c1.1,2.7,2.3,6.1,3.6,9.9
			c-0.6,34.9,1,69.7,1.3,104.6c0.1,16.8-0.1,33.6-0.3,50.4c-0.2,12.9-0.8,24.8,1,36.6c0.2,1.4,0.5,1.8,0.9,1.8
			c1.2,6,5.3-2.4,6.8-6.4c0.6,0.4,1.4-0.8,1.4-3.7c-0.4-27.9,0.2-55.1,0.9-82.9C216.6,107.8,215.2,74.9,216.5,42.2z"/>
		<path fill="#FAAE1B" d="M239.2,40.8h0.8l-13.5-52.7h-11.9l13.5,52.5c-0.1,0.5-0.1,1.1-0.1,1.7c0.1,57.4-1.4,118.5,1.8,175
			c0,0.4,0.1,0.6,0.1,0.9c-0.3,2.4,0.1,5.4,1,4.9c1.4-0.8,5-0.5,5.9-6.2c2-13.4,0.9-36.9,1-51.6C238.3,123.9,238.7,82.4,239.2,40.8z
			"/>
		<polygon fill="#FAAE1B" points="210.5,-74.7 198.2,-74.7 207.1,-39.9 219.5,-39.9 		"/>
		<path fill="#FAAE1B" d="M293.9,40.8h0.4l-0.5-1.9c0-0.3,0-0.5,0-0.8c-0.1-2.2-0.5-3.3-1.1-3.4l-12-46.6h-11.1l6.2,25.4
			c-7.5-18.7-14.7-28.1-21.4-28.1c-5.9,0-8.8,7-8.6,21.1c0.1,8.1,1.3,18.1,3.5,29.7c-0.3,0.6-0.4,1.6-0.4,3
			c1.1,38.7,0.2,109.9,13.5,126.8c9.1,11.6,18.2-5.7,22.5-32.1c-0.3,24.4-0.9,48.6-2.1,72.7c-0.9,19.4-2.4,34.9-9.3,36.9
			c-6.8,1.9-11.8-17.3-11.9-38.8c0-3.9-1.6-4.7-2.1-1.5c-2.3,14.4-6.6,13.3-10.1,21.3c-0.3,0.7-0.6,2-0.5,3.3
			c0.7,24.6,9.5,47.1,15.5,56.7c8.1,13.1,18.2-5.9,24-25.2c6.7-22.2,8.3-56.8,8.4-86.9C297.2,128.9,295.1,84.3,293.9,40.8z
			 M272.5,120.5c-2,4.8-8.3,13.2-9-4.8c-0.3-8.1,0-17,0.1-25.2c0.1-16.2,0.1-32.4,0.2-48.5c0-2-0.4-3-0.8-3.3
			c-0.3-2.6-0.6-5.2-0.7-7.4c-0.3-8.2,1.1-12.3,4.1-12.3c3.1,0,6.8,4.4,11.1,13.2c1.1,2.2,2.1,4.6,3.1,7.1c-0.2,0.6-0.3,1.5-0.2,2.6
			C281.1,71.2,280.1,102.3,272.5,120.5z"/>
		<path fill="#FAAE1B" d="M333.1,107.1c-1.1-30-10-57.2-16.9-73.5c-0.6-1.4-1.3-0.6-1.7,1c-0.3-1-0.7-1.9-1-3
			c-1.3-4.9-1.5-8.8-0.9-11.8c0.7-3,2.2-4.5,4.6-4.5c3.1,0,7,2,11.7,6l-6.8-30c-5-3.8-9.5-5.7-13.6-5.7c-5.8,0-9.3,4.3-10.4,13
			c-1.1,8.7,0.2,20.3,3.9,34.8c0.7,2.6,1.4,5.2,2.1,7.6h0.1c-0.1,0.8-0.2,1.8,0,2.9c3,26.6,11.4,33.2,17.1,51.6
			c4.7,15.3,5.7,39.2,4.1,59.6c-0.9,11.8-3.3,22.3-6.2,29.5c-6,2.8-9-4.6-9.1-22.2c-0.1-4.3-0.1-8.6-0.1-12.9c0-2.2-0.8-4.4-1.4-3.4
			c-2.2,3.2-4.3,5.5-6.6,7.1c-0.6,0.4-0.8,2.8-0.7,4.7c1.4,23,1.1,59.2,9.1,68.2c8.6,9.8,14.3-0.4,18.3-27.4
			C332.6,173,334.1,135.3,333.1,107.1z"/>
		<path fill="#FAAE1B" d="M384.5,165.8c0-1.9-0.5-3.9-1.2-3.6c-6.1,3.2-12.2,5.4-18.3,6.8c1.7-16.6,3.4-33.3,4.8-50.1
			c2.9-25.4,5-51.9,6.2-79.3c0.1-2.1-0.3-3.5-0.7-4.1l-0.2-16.4l-8-31.2h-36.5l7.6,29.7h19.5c1.8,0,3-0.2,3.7-0.6
			c-0.5,3.7-0.6,9.8-0.5,18.3l0,2.8c-0.2,0.6-0.4,1.6-0.4,2.7c-0.5,29.4-2,58.1-4.2,86.5c-2.1,26.7-5.4,52.1-7,79.3
			c-0.1,2.4,0.4,4.6,1.1,4.5c0.9-0.1,1.9-0.3,2.8-0.4c0.4,2.3,1.5,2.7,2,0l0-0.3c9.5-1.2,19-2.5,28.6-4.2c0.6-0.1,1-1.9,1.1-3.9
			C384.8,190.3,384.7,178.1,384.5,165.8z"/>
		<polygon fill="#FAAE1B" points="372.7,-74.7 360.3,-74.7 369.3,-39.9 381.7,-39.9 		"/>
		<path fill="#FAAE1B" d="M402.2,40.8l-0.4-1.5c0-1.7-0.4-2.9-0.8-3.2l-12.3-48h-11.9l13.5,52.7h0.2c-0.1,0.6-0.2,1.3-0.2,2.2
			c0.4,26.6,0.6,53.1,0.6,79.7c0,14.5-0.1,29-0.3,43.5c-0.1,7-0.3,12.6,0.5,18.3c-0.2,1.7-0.2,3.8,0.5,4.8c1.7,2.7,5.2,11.9,7.2,7.6
			c2.7-5.8,2.4-25.3,2.6-34.4c1-40.7-1.9-81.1,0.4-121.7H402.2z"/>
		<path fill="#FAAE1B" d="M455.7,38.1c-0.4-1.5-0.9-3.1-1.3-4.5c-2-6.7-4.1-13.1-6.4-19.2c-2.3-6.1-4.5-11.2-6.7-15.3
			c-2.2-4.1-4.5-7.3-7-9.7c-2.4-2.4-4.9-3.6-7.3-3.6c-6.8,0-9.6,9.1-8.5,27.4l-6.7-25.1h-11.2c3.6,12.8,7,25.4,10.2,38l3.8,14.7h0.4
			c-2,62.3-2.9,124.8-2.7,187.5c0,0.6,0,1,0.1,1.4c0,1.4,0.3,2.7,0.8,2.9c0.5,0.2,1,0.3,1.5,0.5c0.3,3,1.6,3.4,2,0.7
			c0.4,0.1,0.8,0.3,1.2,0.4c1,0.3,1.9,0.5,2.6-1.3c1.1-0.7,1.5-4.5,1.8-8.5l0.4-1.3c0.6-1.8,0.3-4.1-0.2-5.2c0-0.2,0-0.5,0-0.7
			c0.7-19.4,0.3-39.5,0.9-59c1.2-39.2,3.4-77.8,3.4-117.3h0.8c-0.5-3-0.8-5.6-0.9-7.7c-0.3-3.6-0.2-6.5,0.2-8.6
			c0.4-2.1,1-3.6,1.7-4.2c0.7-0.7,1.6-1,2.7-1c3,0,6.1,3.7,9.2,11.2c1,2.4,2.1,5.5,3.2,8.9c0,0.2,0,0.3,0,0.5
			c0.4,57-1.2,113.2-2.1,169.9c-0.2,1.4-0.2,3.6,0.2,4.5c0,0.1,0.1,0.2,0.1,0.3c0.4,1.1,0.9,1,1.3,0.2c1.7,3.4,5.4,9.3,6.6,3.4
			c2.8-13.6,3.4-32.3,4-48.4c1.5-42.2,2.2-84.9,3.2-127.3C456.9,39.9,456.3,38.3,455.7,38.1z"/>
		<path fill="#FAAE1B" d="M490.9,125.4c0-1.5,0-3,0-4.5c0-1.6-0.3-2.7-0.6-3.1c-1.4-16-3.4-31.3-5.6-46.2
			c-1.5-9.9-3.2-22.3-5.7-30.8h0c0,0,0-0.1-0.1-0.1c-0.8-2.8-1.8-5.2-2.8-6.9c-0.1-0.2-0.2-0.2-0.3-0.3c-0.2-0.7-0.5-1.3-0.7-2.1
			c-1.3-4.9-1.5-8.8-0.9-11.8c0.7-3,2.2-4.5,4.6-4.5c3.1,0,7,2,11.7,6l-6.8-30c-5-3.8-9.5-5.7-13.6-5.7c-5.8,0-9.3,4.3-10.4,13
			c-1.1,8.7,0.2,20.3,3.9,34.8c0.6,2.5,1.3,4.8,2,7.1c0,0.1,0,0.2,0,0.4c1.9,21.1,7.2,30.8,11.1,45.3c0.1,0.4,0.2,0.9,0.2,1.3
			c0.1,0.6,0.2,0.9,0.4,1.2c1.1,4.6,2.1,9.8,2.8,16c3.3,30.8,8.2,94.5-5.1,107.7c-0.2-15.5-0.4-30.9-0.9-46.3
			c-0.1-2.3-0.7-4.3-1.4-3.4c-1.3,1.7-2.5,2.5-3.9,2.4c-0.6,0-0.9,1.2-1,2.7c-0.1,0.5-0.3,1-0.3,1.8c0,0.2,0,0.4-0.1,0.7
			c-0.4-0.2-0.8,0.3-1,1.9c-2.7,18.8-4.1,54.8,0.8,70.8c2.3,7.3,6.9,3,9.5,1.3c3.9-2.4,8.3-9.2,10.5-20.7c0.8-4,1.5-8.3,2-12.7
			c0.5-2,0.9-4.1,1.2-6.5c0.1-1.4,0.1-2.6-0.1-3.5C492.8,176.7,492.6,149.1,490.9,125.4z"/>
	</g>
	<g>
		<path fill="#F3F3F3" d="M101.3,106.7c-0.1-3.1-0.1-6.3-0.1-9.4c0-4.8-0.3-9.5-1.2-14.2c0-1.1,0.1-2.2-0.2-3.3
			c-0.1-0.4-0.7-0.8-1.2-1.1l-1.8-1.5C91.3,72.7,83.9,68,77,68c-2.9,0-4.6,0.8-5.1,2l4.2,2.7c0.4-1,1.8-1.7,3.9-1.7
			c4.7,0,9.2,3.4,11.4,5.3l0.6,0.5c-4.8,0-7.4,0.9-7.7,2.6c-0.1,0.1-0.1,0.2-0.1,0.3c0.3,5.3,0.7,10.7,0.9,16
			c0.2,5.2-0.9,10.4,0.4,15.5c0.9,3.6,2.8,5.5,6.6,5c2.1-0.2,3.9-1.2,5-2.8c0.1,0.5,0.2,0.9,0.4,1.2c0.5,0.8,2.4,0.5,3.1,0.6
			c0.3,0,0.6-0.3,0.6-0.5C102,112.1,101.4,109.3,101.3,106.7z M93.4,109.5c-0.5,0.6-1.3,0.9-2.2,0.5c-1.6-0.6-2.2-2.9-2.6-4.4
			c0-0.1-0.1-0.3-0.2-0.3c-0.1-0.9-0.2-1.5-0.2-1.7c-0.1-2.5,0.1-5,0.1-7.5c0-5.5-0.2-11.1-0.5-16.6h5.8c0.6,2.3,0.4,4.9,0.5,7.2
			c0.1,2.7,0.2,5.4,0.4,8.2C94.4,97.1,95.4,106.1,93.4,109.5z"/>
		<path fill="#F3F3F3" d="M124.9,120.8c-0.1-3-0.4-5.9-0.8-8.9c-0.7-5.6-1.5-11.1-1.4-16.8c0.1-5.2,0.5-10.4-0.7-15.6h0.1l-0.1-0.1
			c0,0,0-0.1,0-0.1c-0.1-0.4-0.4-0.5-0.7-0.5l-2-1.7c-5.4-4.6-12.8-9.3-19.7-9.3c-2.9,0-4.6,0.8-5.1,2l4.2,2.7
			c0.4-1,1.8-1.7,3.9-1.7c4.7,0,9.2,3.4,11.4,5.3l0.6,0.5c-4.2,0-6.7,0.6-7.5,1.9c-0.1,0.1-0.2,0.2-0.2,0.3c-0.7,2.3,0,4.7,0.2,7
			c0.3,3.2,0.3,6.5,0.3,9.7c0,6.5-0.4,13,0.4,19.5c0.4,3.7,1.4,8.6,6.2,8.6c3.1,0,4.8-2,5.9-4.4c0.1,1.1,0.3,2.1,0.6,3.1
			c0.3,1,2.5,0.8,3.2,0.6C125,122.8,124.9,122,124.9,120.8z M116.2,116.7c-0.5,1.4-1.5,1.3-2.9-0.2c-0.4-0.9-0.4-2-0.5-3
			c-0.1-1.5-0.2-3-0.3-4.5c-0.2-3.4-0.4-6.7-0.5-10.1c-0.3-6.4-0.5-12.8-0.6-19.3c0,0,0-0.1,0-0.1h5.2c0.7,6.3,0,12.5,0.3,18.8
			C117,104.5,118.9,110.8,116.2,116.7z"/>
		<path fill="#F3F3F3" d="M149.4,105.7c-0.1-0.1-0.1-0.1-0.2-0.2c-0.1-7.8-0.3-15.6-0.7-23.4c0-0.1,0-0.2-0.1-0.3
			c0.1-0.8,0.1-1.6-0.3-2.2h0l0,0c0-0.1-0.1-0.1-0.2-0.2c-0.1-0.1-0.2-0.1-0.3-0.2l-1.9-1.6c-9.3-7.8-16.4-9.7-19.6-9.7
			c-3.8,0-3.9,2.1-2.4,4.3h-0.1l-4.7-3.8h-3.7c2.4,1.9,4.7,3.8,7.5,6.2l5.6,4.7c0,0,0,0,0,0.1c0.3,1.9,0.8,3.7,0.9,5.6
			c0.3,4.5,0.5,9.1,0.8,13.6c0,0.3,0.2,0.6,0.5,0.6c1,0.3,1.7,0.1,2.5-0.4c0.3-0.2,0.4-0.5,0.3-0.7c0.1-0.1,0.1-0.2,0.1-0.4
			c-0.5-6.1-0.9-12.1-1.1-18.2c0,0,0,0,0,0h0.3l-0.4-0.4c-0.1-0.1-0.1-0.1-0.2-0.2l-1.8-1.5c-0.8-0.7-1.6-1.4-2-1.9
			c-2-2.3-2.2-4.2,0.5-4.2c3.9,0,8.9,3.1,13.3,6.7l1.3,1.1c0.5,4.8,0.9,9.5,1.1,14.3c0.1,2.4,0.2,4.8,0.2,7.2c0,2-0.3,4,0.5,5.9
			c0.2,0.4,0.6,0.5,1,0.4c0.7,0.1,1.4,0.2,2.2,0.1C149.3,107.1,149.9,106.3,149.4,105.7z"/>
		<path fill="#F3F3F3" d="M184.8,79.5c0-0.6-0.6-0.8-1-0.5c0,0,0,0,0,0l-25.1-21.1h-4.1l16.2,13.6h-0.1c-3.2-1.8-7.5-3.5-11-3.5
			c-5.4,0-4.7,4.3,3.5,11.4c0,0,0,0.1,0,0.2c-0.1,7.4,0.2,17.5,7,22.1c4,2.7,9.5,1.5,12.1-2c0,0.6,0,1.3,0.4,1.5
			c0.6,0.4,1.1,0.5,1.6,0.3c0.4,0.1,0.7,0.1,1.1,0.2c0.4,0.1,0.9-0.3,0.8-0.7C185.1,94,184.7,86.7,184.8,79.5z M174.9,100
			c-0.6-0.1-1.1-0.3-1.6-0.6c-0.1-0.4-0.4-0.7-0.8-0.6c-2.1-1.8-3-5-3.6-7.5c-0.9-3.9-1.3-7.8-1.5-11.7h0.1c0,0,0,0-0.1-0.1
			c0-0.1,0-0.2,0-0.2c0-0.5-0.5-0.7-0.9-0.6c-0.2-0.2-0.5-0.4-0.7-0.7c-0.1-0.2-0.2-0.3-0.4-0.4c-3.9-3.8-4.7-6.5-1.1-6.5
			c3.1,0,7.9,2.2,11.7,4.8c0.8,0.5,1.6,1.2,2.3,1.7l2.1,1.8c-0.1,3.7,0,7.4,0.3,11.1C180.9,94.6,180.8,101.2,174.9,100z"/>
		<path fill="#F3F3F3" d="M212.2,101.9c0-0.2-0.2-0.4-0.4-0.4c-0.6-0.2-1.2-0.5-1.8-0.9c-0.1-0.1-0.3-0.2-0.5-0.2
			c-0.3-0.2-0.8-0.3-1.1,0.2c-1.6,2.7-3.5,5.2-7,4.5c-3.5-0.8-5.4-3.4-5.8-6.7c-0.7-6.2-0.8-12.5-1.2-18.6h15.2
			c-0.3-0.3-0.6-0.6-1.1-0.9c-5-4.2-14.7-10.7-22.2-10.7c-6.4,0-4.4,5,3.1,11.5c0,0.1-0.1,0.2-0.1,0.3c0.2,5.6,0.3,11.2,0.6,16.9
			c0.2,4.5,2.2,8.1,5.4,11.2c2.5,2.4,6.3,4,9.8,3.1c4.4-1.1,5.5-4.5,7.1-8.3C212.6,102.4,212.4,102,212.2,101.9z M189.8,70.9
			c4.7,0,10.7,4.1,13.7,6.7h-12.1C188.3,74.8,185.6,70.9,189.8,70.9z"/>
		<path fill="#F3F3F3" d="M245.5,79.6c-0.1-0.1-0.2-0.2-0.3-0.3c0,0,0,0,0-0.1c0-0.5-0.5-0.7-0.8-0.6c-8-6.4-17.4-10.7-23.6-10.7
			c-6.1,0-6,4.2,2.3,11.4c-0.1,0.1-0.2,0.3-0.2,0.5c0.1,6-0.2,12.1,1.8,17.9c1.6,4.9,6.1,7.5,11,8.1c4.6,0.6,7.2-4.8,8.4-8.3
			c2.1-5.8,1.4-12.1,1.2-18.1H245.5z M240.4,91.7c-0.3,3.1-1.2,8.3-5.1,8.8c-1.9,0.3-3.7-2.2-4.6-3.5c-1-1.5-1.5-3.2-2-5
			c-1-4-1.3-8.2-1.4-12.3c0-0.1,0-0.2,0-0.2h0.2c-4.9-4.2-7.9-8.5-3.2-8.5c4.6,0,11.9,4.4,16.5,8.1c-0.1,0.1-0.2,0.3-0.2,0.5
			C240.9,83.8,240.8,87.7,240.4,91.7z"/>
		<path fill="#F3F3F3" d="M283.3,80.2c0.1-0.3,0-0.5-0.2-0.6h0.1l-2.1-1.8c-9.4-7.9-16.2-9.9-19.2-9.9c-2.2,0-3,0.6-3.1,1.6
			c-0.1,0.7,0.2,1.7,1,3h-0.1c-4.2-2.7-8.8-4.6-11.9-4.6c-3.8,0-3.5,2-2.2,4.2h-0.1l-4.6-3.7h-3.6c2.4,1.9,4.7,3.8,7.5,6.2l5.7,4.8
			c0,0.1,0,0.1,0,0.2c-0.1,8.3-0.5,16.5-1.1,24.7c0,0.6,0.6,0.8,1,0.5c0.8,0.7,2,0.8,2.9,0.1c0.1-0.1,0.2-0.2,0.3-0.4
			c0.2-0.1,0.3-0.2,0.3-0.5c0.9-8.1,1.3-16.1,1.3-24.3c0-0.5-0.4-0.7-0.8-0.6l-2-1.7c-0.8-0.7-1.6-1.4-2.1-2
			c-1.8-2.1-2.4-4.1,0.2-4.1c3.1,0,7.9,2.6,12.2,6.3l2.2,1.9c0,0.1,0,0.1,0,0.2c0.3,7,0.6,14,0.9,21.1c0,0.6,0.8,0.8,1.2,0.4
			c0,0,0,0,0,0c0.7,0.3,1.5,0,2.2-0.2c0.3-0.1,0.5-0.4,0.5-0.7c-0.5-6.8-0.7-13.7-0.5-20.5c0-0.4-0.3-0.6-0.6-0.6l-2.3-1.9
			c-0.9-0.8-1.7-1.5-2.1-2.1c-1.7-2-1.9-3.8,0.4-3.8c3.3,0,8.1,2.6,13.3,7l1.3,1.1c-0.1,0.1-0.2,0.2-0.3,0.4c-1.1,4.1,0.2,8,0.8,12
			c0.7,4.7,0.4,9.5-0.5,14.1c-0.1,0.6,0.5,1,1,0.8c0,0,0,0,0,0c0.4,1.2,1.5,1.1,2.3,0.3c0.7-0.7,0.8-2.3,0.9-3.1
			c0.3-1.3,0.3-2.7,0.4-4.1C283.9,93.3,282,86.8,283.3,80.2z"/>
		<path fill="#F3F3F3" d="M299.9,79.6h0.4c-1.6-0.6-3.2-1.1-5-1.6c-4.3-1.1-6.7-2-8.9-3.9c-2-1.7-2.3-3.1,0.1-3.1
			c2.1,0,4.7,0.8,6.2,1.3l-2.6-3c-2.2-0.8-5-1.4-7.3-1.4c-4.9,0-4.3,3,0.1,6.7c2.3,1.9,5.2,3.6,8.8,4.9c0,0.3,0.1,0.7,0.5,0.8
			c1.3,0.5,2.6,0.9,3.9,1.4c1.7,0.6,2.4,2.3,3.1,3.8c2.5,5.8-6.7,6.8-6.3,2.5c0-0.5-0.5-0.7-0.9-0.6c-0.6,0.2-1.2,0.3-1.8,0.2
			c-0.4,0-0.6,0.2-0.6,0.5c-0.1,0.1-0.2,0.3-0.2,0.4c-0.2,5.5,6.2,9.8,10.2,5C302.6,90.4,304.3,82.3,299.9,79.6z"/>
		<path fill="#F3F3F3" d="M317.5,109.8c-0.1,0-0.1-0.1-0.2-0.1c0.2-0.5-0.2-1.1-0.8-0.9c-1.5,0.7-3,0.6-3.7-0.6
			c-0.1-1.4-0.2-2.8-0.2-4.2c0.1-0.3,0.1-0.5,0.1-0.8c0.3-1.9,0.1-3.8-0.2-5.7c0-0.8,0-1.6,0-2.4c0-4.9,0-9.8,0-14.7
			c0.1-0.2,0.1-0.6,0-0.8h0.2l-25.9-21.7h-4.1l25.9,21.7h0.3c-0.2,0.1-0.3,0.3-0.3,0.5c0,5.1,0,10.2-0.1,15.3c0,2.7,0,5.4,0,8.1
			c0,2.5-0.3,5.1,0.1,7.6c0.5,3.1,3.9,3.5,6.4,3C316.7,113.7,320.1,111.6,317.5,109.8z"/>
		<path fill="#F3F3F3" d="M355.6,96.3c0,0-0.1-0.1-0.1-0.1l-1.2-1.4c-0.2-0.3-0.7-0.2-1,0c-0.1,0.1-0.1,0.1-0.1,0.2
			c-0.1,0-0.2,0.1-0.3,0.2c-0.7,0.8-1.4,1.6-2.3,2.2c-0.1,0.1-0.3,0.2-0.5,0.3c-0.5,0.1-1.1,0.2-1.8,0.4c-0.4,0-0.7-0.1-1-0.3
			c-0.1-0.2-0.2-0.3-0.3-0.5c-0.8-1.9-0.9-4.1-1.1-6.1c-0.5-3.7-0.6-7.5-0.6-11.2c0-0.5-0.5-0.7-0.9-0.6c-5.1-4.5-6.6-8.1-1.6-8.1
			c2.3,0,4.4,0.5,6.1,1.1l-2.9-3.2c-1.8-0.6-4.7-1.2-7.1-1.2c-7.2,0-6.2,4.8,1.5,11.5c0,0.1,0,0.1,0,0.2c0,4.4,0.4,8.8,0.8,13.3
			c0.3,3.1,0.6,6.1,2.7,8.4c4.1,4.5,11.2,1.3,12.2-4.2C356.3,96.7,356,96.4,355.6,96.3z"/>
		<path fill="#F3F3F3" d="M385.2,93c-0.7-4.3-3.1-8.3-2.3-12.8c0-0.3-0.1-0.5-0.2-0.6h0l-2.3-1.9c-9.4-7.9-16.5-9.7-19.5-9.7
			c-1.6,0-2.4,0.5-2.8,1.2c-0.4,0.7-0.2,1.7,0.5,2.9h-0.1l-16.9-14.2h-4.1L363,79.3c0,0,0,0,0,0.1c0.2,6.3,0.4,12.7,0.6,19
			c0,0.5,0.6,0.7,1,0.6c0.5,0.2,0.7,0.3,1.3,0.4c0.2,0,0.3,0,0.5-0.1c0.4,0.2,1,0,1-0.6c-0.3-6.3-0.3-12.7-0.1-19c0,0,0,0,0,0h0.2
			l-0.2-0.2c-0.1-0.2-0.3-0.4-0.5-0.4l-1.8-1.5c-1-0.8-1.6-1.4-2.1-2c-1.9-2.3-2.1-4.1,0.6-4.1c3.9,0,9,3.1,13.3,6.8l1.5,1.2
			c-0.1,0.1-0.2,0.3-0.2,0.5c0,4.4,1.3,8.2,2.7,12.3c1.6,4.5-1.9,8-1.6,12.4c0,0.5,0.5,0.7,0.8,0.6c0,0,0.1,0.1,0.2,0.1
			c0.5,0.3,1,0.4,1.6,0.5c0.3,0,0.6-0.3,0.6-0.6c0.1,0,0.2-0.1,0.4-0.1c0.3-0.1,0.5-0.4,0.5-0.7c-0.2-2.2,0.9-3.8,1.6-5.8
			C385.5,96.8,385.5,95,385.2,93z"/>
		<path fill="#F3F3F3" d="M405.9,105.3c-0.6-0.4-1.1-0.8-1.7-1.2c-0.3-0.2-0.7-0.3-1,0c-0.2,0.2-0.2,0.4-0.2,0.7
			c-0.4,0.9-0.8,1.7-1.4,2.5c-1.7,2.3-4.2,1.1-5.4-0.8c-1.6-2.4-1.3-5.9-1.4-8.6c-0.2-5.9-0.4-11.9-0.6-17.8c0-0.2-0.1-0.3-0.2-0.4
			h0.1l-9.5-8h5.9l-3.8-3.1H381l-7.8-6.5l-2.8,1.1l6.5,5.5h-3.5l3.8,3.1h3.5l9.3,7.8c0,0,0,0.1,0,0.1c-0.1,5.2,0.4,10.6,0.7,15.8
			c0.2,4-0.3,9.3,1.6,12.9c3.5,6.5,13,5.2,14.4-2.1C406.7,105.6,406.3,105.3,405.9,105.3z M392.4,102.2c0-0.3,0-0.6-0.1-0.8
			c0,0,0,0,0,0c0,0.6,0.1,1.3,0.1,1.9c0,0.1,0,0.2,0.1,0.3c0.1,0.8,0.2,1.5,0.4,2.3C392.6,104.6,392.4,103.3,392.4,102.2z"/>
		<path fill="#F3F3F3" d="M389,64.6c1.6,0,1.3-1.1-0.4-2.5c-1.7-1.5-4.1-2.6-5.6-2.6c-1.5,0-1.2,1.1,0.5,2.6
			C385.1,63.5,387.5,64.6,389,64.6z"/>
		<path fill="#F3F3F3" d="M409.4,97C409.3,97,409.3,97,409.4,97c-0.1-5.8-0.2-11.6-0.2-17.4c0-0.5-0.5-0.7-0.9-0.6l-12.5-10.5h-4.1
			l12.9,10.8c0,0,0,0.1,0,0.2c-0.4,2.7,0.1,5.7,0.3,8.4l0.7,9.6c0,0.5,0.5,0.7,0.9,0.6c0.1,0.1,0.2,0.2,0.4,0.3c0.7,0.1,1.3,0,2-0.2
			c0.1,0,0.2-0.1,0.4-0.1c0,0,0,0,0.1,0C409.5,97.8,409.5,97.3,409.4,97z"/>
		<path fill="#F3F3F3" d="M435.1,98c-0.7-5.9,0.1-12,0.3-17.9c0-0.3-0.2-0.5-0.4-0.6l-5.6-4.7c-3.3-2.8-5.4-4.6-7.3-6.3h-3.6
			l3.9,3.4h-0.1c-3.2-1.9-7.9-3.9-11.8-3.9c-5,0-5,4.1,3.2,11.3c0,0.1-0.1,0.2-0.1,0.3c0.2,4.1,0.5,8.2,1.2,12.2
			c0.6,3.3,1.5,7.1,5,8.4c4.6,1.7,9.1-1.6,11.5-5.6c-0.2,3.3-0.5,6.5-0.7,9.8c-0.1,1.2-0.2,2.3-0.3,3.5c0.1,1.6-0.8,2.5-2.7,2.7
			c-0.5-0.4-0.8-0.9-1.1-1.4c-1.2-1.8-1.3-4.1-1.6-6.2c-0.1-0.5-0.6-0.7-1-0.6c-0.1,0-0.2,0-0.3,0c-0.8,0.2-1.6,0.3-2.5,0.3
			c-0.4,0-0.7,0.3-0.7,0.7c0.3,3.8,0.9,8.8,4.5,11c3.4,2,6.9,1.1,8.8-2.4C436.1,107.9,435.6,102.5,435.1,98z M424.8,93.5
			c-7,3.2-6-10.2-5.9-13.7c0-0.5-0.5-0.7-0.9-0.6c-5.7-4.9-6.6-8-2.8-8c3,0,7.4,2,11,4.4c0.9,0.6,1.6,1.2,2.5,1.9l2.3,1.9
			c0,0.1-0.1,0.3,0,0.4C432.1,85,429.9,91.2,424.8,93.5z"/>
		<path fill="#F3F3F3" d="M461,97.1c-0.5-0.2-1-0.5-1.4-1c-0.2-0.2-0.4-0.4-0.7-0.3c-0.3-0.1-0.6,0-0.8,0.3c-1.2,2.6-2.9,4.7-5.9,5
			c-3.5,0.4-5-3.6-5.4-6.4c-0.7-5-0.5-10.2-0.6-15.2h14.2c-0.3-0.3-0.6-0.6-1.1-0.9c-5-4.2-14.7-10.7-22.2-10.7
			c-6.4,0-4.4,5.1,3.2,11.6h0.1c0.3,4.7,0.6,9.4,1,14c0.3,3.4,0.1,7.5,3.3,9.6c2.8,1.8,6.5,2.3,9.7,1.8c3.3-0.6,5.2-3.5,6.2-6.5
			c0-0.1,0-0.1,0-0.1c0.2,0,0.4-0.1,0.5-0.4C461.5,97.7,461.3,97.2,461,97.1z M442.1,77.6c-3.1-2.9-5.8-6.7-1.7-6.7
			c4.7,0,10.7,4.1,13.7,6.7H442.1z"/>
		<path fill="#F3F3F3" d="M516,109.2C516,109.2,516,109.2,516,109.2c-0.1,0-0.2,0-0.2,0c-0.7-4.7-0.3-9.4-0.4-14.1
			c-0.1-5-0.7-10.1-1.2-15c0-0.2-0.1-0.3-0.2-0.4h0.4l-2.8-2.3c-5.4-4.6-12.8-9.3-19.7-9.3c-2.9,0-4.6,0.8-5.1,2l4.2,2.7
			c0.4-1,1.8-1.7,3.9-1.7c4.7,0,9.2,3.4,11.4,5.3l0.6,0.5c-4.3,0-6.7,0.7-7.5,2c-0.2,0-0.3,0.2-0.4,0.4c-0.5,1.3-0.6,2.6-0.4,4
			c0.1,0.8,0.3,1.5,0.4,2.3c0,0,0,0,0,0c0,0.1,0,0.1,0,0.2c0.3,1.8,0.6,3.6,0.8,5.4c0,0,0,0,0,0c-2.6-2.2-5.2-4.5-7.7-6.7
			c-1.3-1.1-2.6-2.3-4-3.3c-0.8-0.5-1.6-1-2.5-1.5h0.2l-1.4-0.7c-0.5-0.3-1-0.7-1.5-1c-0.2-0.1-0.3-0.2-0.5-0.1l-2.3-9.2h-5l2.7,7.9
			c0.3,0.8,0.7,1.8,1.1,2.6h-0.1l-25.1-21.1h-4.1l25.9,21.7h0.1c0.1,0.2,0.2,0.4,0.4,0.4c0.5,10,0.4,20-0.1,30
			c0,0.3,0.1,0.5,0.3,0.6c-0.1,1.1,1.7,0.9,2.8,0.7c0.3,0.2,0.9,0.1,1-0.3c0.2-0.2,0.2-0.6,0-0.9c-0.4-9.2,0.3-18.5,0.6-27.8
			c5.5,4.6,10.9,9.3,16.4,13.9c0.1,0.2,0.2,0.4,0.3,0.6c0.2,0.4,0.8,0.4,1.1,0.1c0.6-0.7,1.1-1.4,1.6-2.1c0.2,3.6,0.3,7.2,0.8,10.8
			c0.3,2.4,1.2,6,4.4,5.9c2.3-0.1,4.8-0.9,6.1-2.8c0,0.5,0.1,1,0.2,1.5c0,0.2,0.3,0.4,0.5,0.5c1,0.1,2,0.2,2.9,0.1
			c0.6,0,1.4-0.1,1.4-0.9C516.6,109.5,516.3,109.3,516,109.2z M511,79.6c0.5,7.2,0.6,14.5,0.1,21.7c0,0,0,0.1-0.1,0.1
			c-0.4,1-1,1.9-1.7,2.8c-1.8,2.2-3.2,0.3-3.6-1.6c-0.6-2.8-0.8-5.7-1.1-8.5c-0.4-4.8-0.9-9.6-1.3-14.5H511z"/>
		<path fill="#F3F3F3" d="M541.1,103.7c-0.1-2.8-0.2-5.5-0.2-8.3c-0.1-5.2-0.3-10.4-0.4-15.6c0-0.1,0-0.1,0-0.1h0.1l-0.2-0.2
			c-0.1-0.1-0.2-0.2-0.3-0.3l-1.8-1.5c-9.3-7.8-16.4-9.7-19.6-9.7c-3.8,0-3.9,2.1-2.4,4.3h-0.1l-4.7-3.8h-3.7
			c2.4,1.9,4.7,3.8,7.5,6.2l5.6,4.7c0,0.1,0,0.1,0,0.2c0,4.1,0.1,8.3,0.4,12.4c0.1,2.1,0.3,4.1,0.5,6.2c0.1,0.9-0.1,2.4,0.6,3.1
			c0.3,0.2,0.7,0.3,1,0l0,0c0.5,0,1,0,1.5,0c0.3,0,0.6-0.3,0.6-0.5c0-0.1,0-0.1,0-0.2c0.3-0.2,0.6-0.6,0.4-1
			c-0.3-6.5-0.5-13-0.8-19.5c0-0.1-0.1-0.3-0.1-0.4h0.3l-2.4-2c-0.8-0.7-1.6-1.4-2-1.9c-2-2.3-2.2-4.2,0.5-4.2
			c3.9,0,8.9,3.1,13.3,6.7l1.3,1.1c0,0.1,0,0.2,0,0.3c0.1,8.6,0.2,17.3,0.2,25.9c0,0.1,0,0.1,0,0.2c0,0.3,0,0.7,0,1
			c0,0.5,0.5,0.7,0.9,0.6c0.6,0.5,2,0.3,2.8,0.1c0,0,0,0,0.1,0c0.3,0.2,0.7,0.3,1,0C541.6,106.4,541.1,104.7,541.1,103.7z"/>
		<path fill="#F3F3F3" d="M560.5,101.9c-0.5-0.4-1-1-1.2-1.6c-0.3-0.8-1.7-0.4-1.3,0.4c0,0,0,0.1,0.1,0.1c-2.2,3.4-6.1,1.3-6.4-2.2
			c-0.1-2,0-4.1,0-6.1c0-4.3,0.1-8.5,0.2-12.8c0,0,0-0.1,0-0.1h0.3l-9.5-8h5.9l-3.8-3.1h-5.9l-7.8-6.5l-2.8,1.1l6.5,5.5h-3.5
			l3.8,3.1h3.5l9.5,7.9L547.5,93c-0.1,3.5-0.8,7.3,1.1,10.4c3,4.9,10,4,12.7-0.6C561.7,102.2,561,101.7,560.5,101.9z"/>
		<path fill="#F3F3F3" d="M336.6,104.1c0-0.1-0.1-0.2-0.2-0.3c0.1-7.9-0.1-15.8-0.6-23.8c0-0.3-0.2-0.5-0.4-0.6l-2.6-2.2
			c-5.4-4.6-12.8-9.3-19.7-9.3c-2.9,0-4.6,0.8-5.1,2l4.2,2.7c0.4-1,1.8-1.7,3.9-1.7c4.7,0,9.2,3.4,11.4,5.3l0.6,0.5
			c-5.1,0-7.7,1-7.7,2.8h0.4c0,0,0,0,0,0.1c-0.4,0-0.8,0.2-0.8,0.7c0.2,4.5,0.5,9.1,0.8,13.6c0.2,2.6-0.3,7.3,1.8,9.3
			c1.8,1.6,5.1,3.2,7.5,2c1.4-0.7,2.3-1.8,3-3c0,0.8,0,1.5,0,2.3c0,0.3,0.2,0.6,0.5,0.6c0.5,0.1,1,0.1,1.5,0.1
			c0.3,0.3,0.9,0.3,1.1-0.1C336.8,105,336.9,104.4,336.6,104.1z M331.6,79.6c0.2,3.8,0.4,7.6,0.7,11.4c0.2,3.7,0.4,8.2-2.9,10.8
			c-0.6,0.4-1.1,0.7-1.6,0.7c-0.3,0-0.5-0.1-0.7-0.1c-0.1,0-0.2-0.1-0.3-0.1c0.1-0.5-0.5-0.9-1-0.7c-1-1-1.6-2.7-1.7-3.9
			c-0.3-1.8-0.3-3.7-0.3-5.6c-0.2-4.2-0.2-8.3-0.2-12.5c0,0,0,0,0,0H331.6z"/>
	</g>
</g>
</svg>
