<?xml version="1.0" encoding="utf-8"?>
<!-- Generator: Adobe Illustrator 18.0.0, SVG Export Plug-In . SVG Version: 6.00 Build 0)  -->
<!DOCTYPE svg PUBLIC "-//W3C//DTD SVG 1.1//EN" "http://www.w3.org/Graphics/SVG/1.1/DTD/svg11.dtd">
<svg version="1.1" id="Layer_1" xmlns="http://www.w3.org/2000/svg" xmlns:xlink="http://www.w3.org/1999/xlink" x="0px" y="0px"
	 viewBox="0 0 480 298" enable-background="new 0 0 480 298" xml:space="preserve">
<g opacity="0.3">
	<defs>
		<rect id="SVGID_1_" x="-83.3" y="-266" opacity="0.3" width="750" height="826.7"/>
	</defs>
	<clipPath id="SVGID_2_">
		<use xlink:href="#SVGID_1_"  overflow="visible"/>
	</clipPath>
	<g clip-path="url(#SVGID_2_)">
		
			<rect x="-152.1" y="-5.1" transform="matrix(0.9698 0.2437 -0.2437 0.9698 26.9495 -14.6442)" fill="#B72531" width="449.4" height="213.3"/>
		<g>
			<path fill="#007AB9" d="M158.3,67.9c5.6-32.5,20.6-56.2,45-71.3s55-19.5,91.8-13.2c19.7,3.4,38.1,9.5,55.4,18.4l-9,36
				c-15.8-10.8-33.4-17.9-52.7-21.2c-23-3.9-42-0.6-57,9.9c-15,10.5-24.5,27-28.3,49.3c-3.8,22.3-0.4,41.2,10.2,56.7
				c10.6,15.6,26.5,25.2,47.8,28.8c8.4,1.4,17.3,1.4,26.7-0.1l8.7-50.7l-44.9-7.7l5.8-34l84.8,14.5l-19.2,111.9
				c-22.6,3.4-46.5,3-71.6-1.3c-36.8-6.3-63.1-20.5-78.7-42.6S152.5,101.6,158.3,67.9z"/>
		</g>
		<text transform="matrix(1 0 0 1 285.4533 160.4643)" fill="#FFFFFF" font-family="'NSSans-Bold'" font-size="76.0705">E</text>
		<text transform="matrix(0.9213 -0.3889 0.3889 0.9213 372.8878 193.7587)" font-family="'NSSans-Bold'" font-size="76.0705">L</text>
		<g>
			<g>
				<path fill="#006E9A" d="M408.3,269l21.4-56.1l18.7,7.1l-20.7,54.3c-3.4,8.8-4.2,15.9-2.6,21.1c1.6,5.3,5.8,9.2,12.5,11.7
					c6.7,2.5,12.4,2.4,17-0.6c4.7-2.9,8.8-9,12.2-18.1l20.5-53.6l18.1,6.9L484,298.1c-5.1,13.3-11.9,21.8-20.4,25.6
					c-8.5,3.8-19.5,3.2-32.8-1.9c-12.5-4.8-20.6-11.5-24.3-20.1C402.7,293.1,403.3,282.2,408.3,269z"/>
			</g>
		</g>
		<text transform="matrix(1 0 0 1 556.61 352.0399)" font-family="'NSSans-Bold'" font-size="76.0705">K</text>
		<text transform="matrix(1 0 0 1 -24.8275 50.4642)" fill="#FFFFFF" font-family="'NSSans-Bold'" font-size="76.0705">O</text>
		<g>
			<g>
				<g>
					<path fill="#FFC846" d="M98.1,118.1L73.5-8.1l30.1-5.9l57.1,68.3c2.6,2.9,7.2,9.7,14,20.5c-3.2-8.3-5.9-18.5-8.2-30.5l-13.3-68
						l24.1-4.7l24.6,126.2l-30.6,6l-56.3-68.1c-0.2-0.3-0.8-1-1.7-2c-0.9-1-1.5-1.8-1.9-2.3c-0.4-0.5-1.1-1.3-2-2.5
						c-0.9-1.2-1.8-2.3-2.5-3.4c-0.8-1.1-1.7-2.5-2.9-4.3c-1.2-1.8-2.5-3.7-3.8-5.8c3.9,9.5,6.9,20.2,9.3,32l12.9,66L98.1,118.1z"/>
				</g>
			</g>
		</g>
		<polygon fill="#82BBE6" points="398.9,159.9 342.6,50.5 465.5,56.4 		"/>
		<polygon fill="#003264" points="333.2,443.6 163.5,266.6 401.6,208.1 		"/>
		
			<rect x="454.3" y="106.4" transform="matrix(0.9715 -0.237 0.237 0.9715 -33.8392 144.2842)" fill="#FFC846" width="257.9" height="213"/>
	</g>
</g>
</svg>
