<?xml version="1.0" encoding="utf-8"?>
<!-- Generator: Adobe Illustrator 18.0.0, SVG Export Plug-In . SVG Version: 6.00 Build 0)  -->
<!DOCTYPE svg PUBLIC "-//W3C//DTD SVG 1.1//EN" "http://www.w3.org/Graphics/SVG/1.1/DTD/svg11.dtd">
<svg version="1.1" id="Layer_1" xmlns="http://www.w3.org/2000/svg" xmlns:xlink="http://www.w3.org/1999/xlink" x="0px" y="0px"
	 viewBox="0 110.6 1190.6 545.9" enable-background="new 0 110.6 1190.6 545.9" xml:space="preserve">
<g>
	<g>
		
			<rect x="-87.5" y="108.8" transform="matrix(0.9698 0.2437 -0.2437 0.9698 75.5165 -56.622)" fill="#B72531" width="708.2" height="336"/>
	</g>
	<g>
		<g>
			<path fill="#007AB9" d="M401.5,223.8c8.8-51.1,32.4-88.6,70.9-112.3S559.1,80.8,617,90.7c31,5.3,60.1,15,87.3,29.1l-14.2,56.8
				c-24.9-17.1-52.6-28.2-83-33.4c-36.2-6.2-66.2-1-89.9,15.5c-23.7,16.6-38.5,42.5-44.6,77.8c-6,35.1-0.6,64.9,16.1,89.4
				c16.7,24.5,41.8,39.7,75.3,45.4c13.3,2.3,27.3,2.2,42-0.1l13.7-79.9L549,279l9.2-53.5l133.7,22.9l-30.2,176.4
				c-35.7,5.4-73.3,4.7-112.8-2.1c-58-9.9-99.4-32.3-124-67.1S392.4,276.9,401.5,223.8z"/>
		</g>
	</g>
	<g>
		<path fill="#FFFFFF" d="M612,369.6v-83.9h49.7v13.9h-32.8v20h30.1v13.9h-30.1V356h33.3v13.6H612z"/>
	</g>
	<g>
		<path d="M749,418.1l-32.6-77.3l15.6-6.6l27.3,64.8l30.2-12.8l5.3,12.6L749,418.1z"/>
	</g>
	<g>
		<g>
			<g>
				<path fill="#006E9A" d="M795.5,540.6l33.7-88.4l29.5,11.2L826,549c-5.3,13.9-6.7,25-4.1,33.3c2.6,8.3,9.2,14.5,19.7,18.5
					c10.5,4,19.5,3.7,26.8-0.9c7.4-4.6,13.8-14.1,19.3-28.5l32.2-84.5l28.5,10.9l-33.8,88.8c-8,20.9-18.7,34.4-32.2,40.4
					c-13.5,6-30.7,5-51.7-3c-19.6-7.5-32.4-18-38.4-31.7C786.6,578.6,787.6,561.4,795.5,540.6z"/>
			</g>
		</g>
	</g>
	<g>
		<path d="M1039.3,671.5v-83.9h16.9v29.8c0,2.1-0.1,4.3-0.4,6.6c1.1-1.4,2.6-3.4,4.4-5.7l26.3-30.7h20.4l-34.2,38.7l36.2,45.2h-22.1
			l-27-34.6c-1.8-2.2-3.1-4.1-4-5.5c0.2,2,0.4,4.4,0.4,7.4v32.7H1039.3z"/>
	</g>
	<g>
		<path fill="#FFFFFF" d="M119.2,154.5c0-13.6,3.7-24.3,11-32.1c7.3-7.8,17.4-11.8,30.1-11.8c12.4,0,22.3,4,29.7,11.9
			c7.5,7.9,11.2,18.4,11.2,31.4c0,13.7-3.7,24.5-11,32.4c-7.3,7.9-17.4,11.8-30.2,11.8c-12.5,0-22.5-3.9-29.8-11.7
			C122.9,178.5,119.2,167.9,119.2,154.5z M137.3,154.4c0,9.2,2.1,16.7,6.3,22.4c4.2,5.7,9.8,8.5,16.7,8.5c6.7,0,12.1-2.9,16.4-8.6
			c4.3-5.7,6.4-13,6.4-21.9c0-9.3-2.1-16.8-6.4-22.5c-4.2-5.8-9.7-8.6-16.5-8.6c-6.9,0-12.4,2.8-16.6,8.5
			C139.4,137.9,137.3,145.3,137.3,154.4z"/>
	</g>
	<g>
		<g>
			<path fill="#FFC846" d="M306.7,302.9L267.9,104l47.4-9.3l90,107.6c4.1,4.6,11.4,15.3,22,32.3c-5-13.1-9.3-29.1-13-48L393.4,79.5
				l38-7.4L470.2,271l-48.3,9.4L333.2,173c-0.4-0.5-1.3-1.6-2.6-3.2c-1.4-1.6-2.4-2.8-3-3.6c-0.6-0.8-1.7-2.1-3.2-4
				c-1.5-1.9-2.8-3.7-4-5.4c-1.2-1.7-2.7-4-4.6-6.8c-1.9-2.8-3.9-5.8-5.9-9.1c6.1,14.9,10.9,31.8,14.6,50.4l20.3,104L306.7,302.9z"
				/>
		</g>
	</g>
	<g>
		<polygon fill="#82BBE6" points="780.6,368.7 691.9,196.3 885.5,205.7 		"/>
	</g>
	<g>
		<polygon fill="#003264" points="677.1,815.8 409.7,536.9 784.9,444.7 		"/>
	</g>
	<g>
		
			<rect x="867.9" y="284.5" transform="matrix(0.9715 -0.237 0.237 0.9715 -76.6648 266.7223)" fill="#FFC846" width="406.4" height="335.6"/>
	</g>
</g>
</svg>
