<?xml version="1.0" encoding="utf-8"?>
<!-- Generator: Adobe Illustrator 18.0.0, SVG Export Plug-In . SVG Version: 6.00 Build 0)  -->
<!DOCTYPE svg PUBLIC "-//W3C//DTD SVG 1.1//EN" "http://www.w3.org/Graphics/SVG/1.1/DTD/svg11.dtd">
<svg version="1.1" id="Layer_1" xmlns="http://www.w3.org/2000/svg" xmlns:xlink="http://www.w3.org/1999/xlink" x="0px" y="0px"
	 viewBox="0 0 310.5 147" enable-background="new 0 0 310.5 147" xml:space="preserve">
<g>
	
		<rect x="-11.4" y="19.2" transform="matrix(0.9698 0.2437 -0.2437 0.9698 13.5553 -15.7954)" fill="#B72731" width="164.1" height="55.4"/>
	<g>
		<path fill="#0A7BBA" d="M115.8,43.9c1.4-8.4,5.3-14.6,11.7-18.5s14.3-5.1,23.8-3.4c5.1,0.9,9.9,2.5,14.4,4.8l-2.3,9.4
			c-4.1-2.8-8.7-4.7-13.7-5.5c-6-1-10.9-0.2-14.8,2.6c-3.9,2.7-6.4,7-7.4,12.8c-1,5.8-0.1,10.7,2.7,14.7c2.8,4,6.9,6.5,12.4,7.5
			c2.2,0.4,4.5,0.4,6.9,0l2.3-13.2l-11.7-2l1.5-8.8l22,3.8l-5,29.1c-5.9,0.9-12.1,0.8-18.6-0.3c-9.6-1.6-16.4-5.3-20.5-11.1
			S114.3,52.7,115.8,43.9z"/>
	</g>
	<text transform="matrix(1 0 0 1 148.8491 67.9459)" fill="#FFC846" font-family="'NSSans-Bold'" font-size="19.7707">E</text>
	
		<text transform="matrix(0.9213 -0.3889 0.3889 0.9213 171.5818 76.6081)" fill="#010101" font-family="'NSSans-Bold'" font-size="19.7707">L</text>
	<g>
		<g>
			<path fill="#046F9B" d="M180.8,96.1l5.6-14.6l4.9,1.9l-5.4,14.1c-0.9,2.3-1.1,4.1-0.7,5.5c0.4,1.4,1.5,2.4,3.2,3
				c1.7,0.7,3.2,0.6,4.4-0.1c1.2-0.8,2.3-2.3,3.2-4.7l5.3-13.9l4.7,1.8l-5.6,14.6c-1.3,3.5-3.1,5.7-5.3,6.7c-2.2,1-5.1,0.8-8.5-0.5
				c-3.2-1.2-5.3-3-6.3-5.2C179.3,102.4,179.5,99.6,180.8,96.1z"/>
		</g>
	</g>
	<text transform="matrix(1 0 0 1 219.3217 117.7369)" fill="#010101" font-family="'NSSans-Bold'" font-size="19.7707">K</text>
	<text transform="matrix(1 0 0 1 68.2055 39.358)" fill="#FFFFFF" font-family="'NSSans-Bold'" font-size="19.7707">O</text>
	<g>
		<g>
			<g>
				<path fill="#FFC947" d="M100.2,56.9l-6.4-32.8l7.8-1.5l14.8,17.7c0.7,0.8,1.9,2.5,3.6,5.3c-0.8-2.2-1.5-4.8-2.1-7.9l-3.4-17.7
					l6.3-1.2l6.4,32.8l-8,1.6l-14.6-17.7c-0.1-0.1-0.2-0.3-0.4-0.5c-0.2-0.3-0.4-0.5-0.5-0.6c-0.1-0.1-0.3-0.3-0.5-0.7
					c-0.2-0.3-0.5-0.6-0.7-0.9c-0.2-0.3-0.5-0.7-0.8-1.1c-0.3-0.5-0.6-1-1-1.5c1,2.5,1.8,5.2,2.4,8.3l3.3,17.2L100.2,56.9z"/>
			</g>
		</g>
	</g>
	<polygon fill="#84BBE6" points="178.3,67.8 163.7,39.4 195.6,40.9 	"/>
	<polygon fill="#1B3562" points="161.3,141.5 117.1,95.5 179,80.3 	"/>
	
		<rect x="191.9" y="46.7" transform="matrix(0.9715 -0.237 0.237 0.9715 -10.3494 62.7044)" fill="#FFC947" width="127.6" height="55.3"/>
</g>
</svg>
