<?xml version="1.0" encoding="utf-8"?>
<!-- Generator: Adobe Illustrator 18.0.0, SVG Export Plug-In . SVG Version: 6.00 Build 0)  -->
<!DOCTYPE svg PUBLIC "-//W3C//DTD SVG 1.1//EN" "http://www.w3.org/Graphics/SVG/1.1/DTD/svg11.dtd">
<svg version="1.1" id="Layer_1" xmlns="http://www.w3.org/2000/svg" xmlns:xlink="http://www.w3.org/1999/xlink" x="0px" y="0px"
	 viewBox="0 0 200 200" enable-background="new 0 0 200 200" xml:space="preserve">
<g>
	<g>
		<path d="M80.8,152.4c-39.5,0-71.6-32.1-71.6-71.6c0-39.5,32.1-71.6,71.6-71.6s71.6,32.1,71.6,71.6
			C152.4,120.3,120.3,152.4,80.8,152.4z M80.8,17.7C46,17.7,17.7,46,17.7,80.8c0,34.8,28.3,63.1,63.1,63.1
			c34.8,0,63.1-28.3,63.1-63.1C143.9,46,115.6,17.7,80.8,17.7z"/>
	</g>
	<g>
		<rect x="115.8" y="153.7" transform="matrix(0.7071 0.7072 -0.7072 0.7071 157.963 -65.4264)" width="84.4" height="8.5"/>
	</g>
</g>
</svg>
